<?xml version="1.0" encoding="UTF-8"?>
<svg width="30px" height="21px" viewBox="0 0 30 21" version="1.1" xmlns="http://www.w3.org/2000/svg" xmlns:xlink="http://www.w3.org/1999/xlink">
    <title>Group 36</title>
    <g id="Page-1" stroke="none" stroke-width="1" fill="none" fill-rule="evenodd">
        <g id="Home" transform="translate(-473.000000, -360.000000)" fill="#FFAC24">
            <g id="Group-36" transform="translate(473.000000, 360.000000)">
                <rect id="Rectangle" x="3.15789474" y="16.5789474" width="23.6842105" height="3.94736842" rx="1"></rect>
                <path d="M15,0 C15.8720286,0 16.5789474,0.706918816 16.5789474,1.57894737 C16.5789474,1.97581334 16.4325289,2.33848144 16.1907643,2.61587934 C18.1247065,4.42766642 20.5573137,9.47368421 22.5,9.47368421 C24.3369655,9.47368421 25.1481005,8.10591034 27.1612025,5.68861937 C26.9610407,5.42443455 26.8421053,5.09452775 26.8421053,4.73684211 C26.8421053,3.86481355 27.5490241,3.15789474 28.4210526,3.15789474 C29.2930812,3.15789474 30,3.86481355 30,4.73684211 C30,5.3866341 29.6074845,5.94474919 29.0466233,6.18701748 L27.0314714,14.2425356 C26.9201796,14.6877026 26.5201965,15 26.0613289,15 L3.95340736,15 C3.48775137,15 3.08372334,14.6785906 2.97901616,14.2248595 L1.13885042,6.25364224 C0.480973503,6.06309296 0,5.45613622 0,4.73684211 C0,3.86481355 0.706918816,3.15789474 1.57894737,3.15789474 C2.45097592,3.15789474 3.15789474,3.86481355 3.15789474,4.73684211 C3.15789474,4.9919912 3.09737512,5.23300518 2.98990764,5.44631228 C4.85849903,8.01405037 6.37661794,9.47368421 7.89473684,9.47368421 C9.18013597,9.47368421 11.9361477,4.50316271 13.8489769,2.65498477 C13.5826496,2.37506332 13.4210526,1.99587684 13.4210526,1.57894737 C13.4210526,0.706918816 14.1279714,0 15,0 Z" id="Combined-Shape"></path>
            </g>
        </g>
    </g>
</svg>