<?xml version="1.0" encoding="UTF-8"?>
<svg width="21px" height="21px" viewBox="0 0 21 21" version="1.1" xmlns="http://www.w3.org/2000/svg" xmlns:xlink="http://www.w3.org/1999/xlink">
    <title>Path Copy</title>
    <g id="Page-1" stroke="none" stroke-width="1" fill="none" fill-rule="evenodd">
        <g id="Listing" transform="translate(-1051.000000, -1820.000000)" fill="#5A5876" fill-rule="nonzero">
            <g id="Group-5-Copy" transform="translate(1010.000000, 1820.000000)">
                <path d="M59.1176471,0 L43.5882353,0 C42.1608235,0 41,1.16082353 41,2.58823529 L41,18.1176471 C41,19.5450588 42.1608235,20.7058824 43.5882353,20.7058824 L51.3529412,20.7058824 L51.3529412,13.5882353 L48.7647059,13.5882353 L48.7647059,10.3529412 L51.3529412,10.3529412 L51.3529412,7.76470588 C51.3529412,5.62035294 53.0909412,3.88235294 55.2352941,3.88235294 L57.8235294,3.88235294 L57.8235294,7.11764706 L56.5294118,7.11764706 C55.8150588,7.11764706 55.2352941,7.05035294 55.2352941,7.76470588 L55.2352941,10.3529412 L58.4705882,10.3529412 L57.1764706,13.5882353 L55.2352941,13.5882353 L55.2352941,20.7058824 L59.1176471,20.7058824 C60.5450588,20.7058824 61.7058824,19.5450588 61.7058824,18.1176471 L61.7058824,2.58823529 C61.7058824,1.16082353 60.5450588,0 59.1176471,0 Z" id="Path-Copy"></path>
            </g>
        </g>
    </g>
</svg>