<?xml version="1.0" encoding="UTF-8"?>
<svg width="21px" height="21px" viewBox="0 0 21 21" version="1.1" xmlns="http://www.w3.org/2000/svg" xmlns:xlink="http://www.w3.org/1999/xlink">
    <title>Combined Shape</title>
    <g id="Page-1" stroke="none" stroke-width="1" fill="none" fill-rule="evenodd">
        <g id="Listing" transform="translate(-1071.000000, -1792.000000)" fill="#5A5876">
            <path d="M1089.375,1792 C1090.82379,1792 1092,1793.17621 1092,1794.625 L1092,1794.625 L1092,1810.375 C1092,1811.82379 1090.82379,1813 1089.375,1813 L1089.375,1813 L1073.625,1813 C1072.17621,1813 1071,1811.82379 1071,1810.375 L1071,1810.375 L1071,1794.625 C1071,1793.17621 1072.17621,1792 1073.625,1792 L1073.625,1792 Z M1077.95144,1799.90388 L1075.16422,1799.90388 L1075.16422,1808 L1077.95144,1808 L1077.95144,1799.90388 Z M1084.79158,1799.7135 C1083.31315,1799.7135 1082.65093,1800.49865 1082.2801,1801.05015 L1082.2801,1801.05015 L1082.2801,1799.90388 L1079.4936,1799.90388 L1079.49587,1799.96128 C1079.5038,1800.20364 1079.50781,1800.79135 1079.50931,1801.54502 L1079.50931,1801.54502 L1079.50992,1802.01167 C1079.51003,1802.17282 1079.51005,1802.33909 1079.51,1802.50909 L1079.51,1802.50909 L1079.50929,1803.29455 C1079.50673,1805.07493 1079.49823,1807.01817 1079.49493,1807.72425 L1079.49493,1807.72425 L1079.4941,1807.89756 C1079.494,1807.91979 1079.49391,1807.93858 1079.49383,1807.95375 L1079.4936,1807.99997 L1082.28007,1807.99997 L1082.28007,1803.47853 L1082.28253,1803.33388 C1082.28951,1803.1425 1082.31285,1802.95998 1082.37195,1802.82161 C1082.57306,1802.33828 1083.03186,1801.83763 1083.80173,1801.83763 C1084.80962,1801.83763 1085.2134,1802.58032 1085.2134,1803.66822 L1085.2134,1803.66822 L1085.2134,1807.99997 L1088,1807.99997 L1088,1803.35719 L1087.99545,1803.11294 C1087.90783,1800.79451 1086.56396,1799.7135 1084.79158,1799.7135 Z M1076.57665,1796 C1075.62306,1796 1075,1796.60542 1075,1797.39892 C1075,1798.17576 1075.60411,1798.79787 1076.53976,1798.79787 L1076.53976,1798.79787 L1076.55777,1798.79787 L1076.72541,1798.79151 C1077.59869,1798.72415 1078.13454,1798.13006 1078.13454,1797.39892 C1078.11651,1796.60542 1077.52968,1796 1076.57665,1796 Z" id="Combined-Shape"></path>
        </g>
    </g>
</svg>