<?xml version="1.0" encoding="UTF-8"?>
<svg width="21px" height="21px" viewBox="0 0 21 21" version="1.1" xmlns="http://www.w3.org/2000/svg" xmlns:xlink="http://www.w3.org/1999/xlink">
    <title>5296501_linkedin_network_linkedin logo_icon</title>
    <g id="Page-1" stroke="none" stroke-width="1" fill="none" fill-rule="evenodd">
        <g id="Home" transform="translate(-1364.000000, -2897.000000)">
            <g id="5296501_linkedin_network_linkedin-logo_icon" transform="translate(1364.000000, 2897.000000)">
                <path d="M18.375,0 C19.8237949,0 21,1.17620508 21,2.625 L21,2.625 L21,18.375 C21,19.8237949 19.8237949,21 18.375,21 L18.375,21 L2.625,21 C1.17620508,21 0,19.8237949 0,18.375 L0,18.375 L0,2.625 C0,1.17620508 1.17620508,0 2.625,0 L2.625,0 Z M6.95143726,7.90387839 L4.16422332,7.90387839 L4.16422332,16 L6.95143726,16 L6.95143726,7.90387839 Z M13.791584,7.71349735 C12.3131516,7.71349735 11.6509283,8.49865437 11.2801014,9.05015052 L11.2801014,9.05015052 L11.2801014,7.90387839 L8.49360247,7.90387839 L8.49586604,7.96127833 C8.50380421,8.20363558 8.5078084,8.79135499 8.50930807,9.54502253 L8.50930807,9.54502253 L8.50991599,10.0116718 C8.51002754,10.1728169 8.5100517,10.3390906 8.50999965,10.509093 L8.50999965,10.509093 L8.50928855,11.2945467 C8.5067323,13.0749283 8.49822696,15.0181694 8.49492707,15.7242505 L8.49492707,15.7242505 L8.49410442,15.8975601 C8.49399706,15.9197925 8.4939055,15.9385821 8.49383114,15.9537537 L8.49360247,15.9999686 L11.2800689,15.9999686 L11.2800689,11.4785288 L11.2825324,11.3338821 C11.2895056,11.1425003 11.3128486,10.9599805 11.3719469,10.8216106 C11.5730579,10.3382826 12.0318627,9.83763002 12.8017265,9.83763002 C13.8096215,9.83763002 14.2134036,10.5803232 14.2134036,11.6682193 L14.2134036,11.6682193 L14.2134036,15.9999686 L17,15.9999686 L17,11.3571946 L16.9954509,11.1129367 C16.9078292,8.79450833 15.5639641,7.71349735 13.791584,7.71349735 Z M5.57664788,4 C4.62306062,4 4,4.60541547 4,5.39892088 C4,6.17576089 4.60411302,6.79787315 5.5397602,6.79787315 L5.5397602,6.79787315 L5.55776529,6.79787315 L5.72541127,6.79151037 C6.59869219,6.72414808 7.13454317,6.13006442 7.13454317,5.39892088 C7.11650558,4.60541547 6.52968265,4 5.57664788,4 Z" id="Combined-Shape" fill="#FFFFFF"></path>
                <g id="shapes" transform="translate(4.000000, 4.000000)"></g>
            </g>
        </g>
    </g>
</svg>