<?xml version="1.0" encoding="UTF-8"?>
<svg width="26px" height="21px" viewBox="0 0 26 21" version="1.1" xmlns="http://www.w3.org/2000/svg" xmlns:xlink="http://www.w3.org/1999/xlink">
    <title>Path</title>
    <g id="Page-1" stroke="none" stroke-width="1" fill="none" fill-rule="evenodd">
        <g id="Listing" transform="translate(-1092.000000, -1820.000000)" fill="#5A5876" fill-rule="nonzero">
            <g id="Group-5-Copy" transform="translate(1010.000000, 1820.000000)">
                <g id="013-twitter-1-copy" transform="translate(82.000000, 0.000000)">
                    <path d="M26,2.48607692 C25.033125,2.90769231 24.002875,3.18715385 22.92875,3.32284615 C24.03375,2.667 24.877125,1.63638462 25.273625,0.394153846 C24.243375,1.00476923 23.105875,1.43607692 21.893625,1.67676923 C20.915375,0.641307692 19.521125,0 18.000125,0 C15.049125,0 12.673375,2.38107692 12.673375,5.30007692 C12.673375,5.72007692 12.709125,6.12392308 12.796875,6.50838462 C8.3655,6.29353846 4.444375,4.18223077 1.81025,0.966 C1.350375,1.75915385 1.080625,2.667 1.080625,3.64430769 C1.080625,5.47938462 2.03125,7.10607692 3.44825,8.04784615 C2.591875,8.03169231 1.75175,7.78453846 1.04,7.39523077 C1.04,7.41138462 1.04,7.43238462 1.04,7.45338462 C1.04,10.0283077 2.887625,12.1670769 5.3105,12.6597692 C4.876625,12.7776923 4.40375,12.8342308 3.913,12.8342308 C3.57175,12.8342308 3.22725,12.8148462 2.903875,12.7437692 C3.5945,14.8421538 5.55425,16.3848462 7.8845,16.4349231 C6.071,17.8451538 3.768375,18.6948462 1.275625,18.6948462 C0.8385,18.6948462 0.41925,18.6754615 0,18.6221538 C2.361125,20.1357692 5.159375,21 8.177,21 C17.9855,21 23.348,12.9230769 23.348,5.922 C23.348,5.68776923 23.339875,5.46161538 23.3285,5.23707692 C24.386375,4.49076923 25.27525,3.55869231 26,2.48607692 Z" id="Path"></path>
                </g>
            </g>
        </g>
    </g>
</svg>