<?xml version="1.0" encoding="UTF-8"?>
<svg width="1024px" height="342px" viewBox="0 0 1024 342" version="1.1" xmlns="http://www.w3.org/2000/svg" xmlns:xlink="http://www.w3.org/1999/xlink">
    <title>undraw_among_nature_p1xb</title>
    <g id="Page-1" stroke="none" stroke-width="1" fill="none" fill-rule="evenodd" opacity="0.41141183">
        <g id="Home" transform="translate(-448.000000, -2330.000000)" fill-rule="nonzero">
            <g id="undraw_among_nature_p1xb" transform="translate(448.000000, 2330.000000)">
                <polygon id="Path" fill="#3F3D56" points="95.0997578 256.035102 83.926633 327.044831 106.272883 327.044831"></polygon>
                <polygon id="Path" fill="#3F3D56" points="83.3385738 262.035924 72.165449 333.045653 94.5116986 333.045653"></polygon>
                <polygon id="Path" fill="#3F3D56" points="69.225153 262.035924 58.0520282 333.045653 80.3982778 333.045653"></polygon>
                <polygon id="Path" fill="#3F3D56" points="767.839483 234.032087 756.666359 305.041816 779.012608 305.041816"></polygon>
                <polygon id="Path" fill="#3F3D56" points="783.129023 234.032087 771.955898 305.041816 794.302147 305.041816"></polygon>
                <polygon id="Path" fill="#3F3D56" points="794.890207 249.034143 783.717082 320.043872 806.063331 320.043872"></polygon>
                <polygon id="Path" fill="#3F3D56" points="810.179746 249.034143 799.006621 320.043872 821.352871 320.043872"></polygon>
                <polygon id="Path" fill="#3F3D56" points="876.042376 260.03565 864.869251 331.045379 887.215501 331.045379"></polygon>
                <polygon id="Path" fill="#3F3D56" points="891.331915 260.03565 880.158791 331.045379 902.50504 331.045379"></polygon>
                <polygon id="Path" fill="#3F3D56" points="912.53733 335.045927 893.648869 335.045927 894.283973 331.045379 898.259253 305.781918 898.388626 304.911798 903.0931 275.037705 908.244498 307.792193 910.737869 323.624362"></polygon>
                <polygon id="Path" fill="#3F3D56" points="927.826869 335.045927 908.938408 335.045927 910.737869 323.624362 913.078345 308.782329 918.382639 275.037705 924.051529 311.082644 924.051529 311.092645 925.709856 321.624088"></polygon>
                <polygon id="Path" fill="#3F3D56" points="943.739751 335.045927 923.604604 335.045927 925.709856 321.624088 927.262333 311.772739 933.672178 271.037157 940.540709 314.663135 941.316948 319.623814"></polygon>
                <polygon id="Path" fill="#3F3D56" points="959.029291 335.045927 938.894144 335.045927 941.316948 319.623814 942.046141 314.99318 948.961717 271.037157 956.018428 315.913306 956.394785 318.253626"></polygon>
                <polygon id="Path" fill="#3F3D56" points="968.438238 335.045927 953.007564 335.045927 955.677353 318.093605 956.018428 315.913306 960.722901 286.039213 966.144807 320.533939 968.367671 334.62587"></polygon>
                <polygon id="Path" fill="#3F3D56" points="983.727777 335.045927 968.297104 335.045927 968.367671 334.62587 970.425878 321.544077 976.01244 286.039213 982.045928 324.354462"></polygon>
                <path d="M1023.64509,341.046749 L0.422085372,341.046749 C0.422085372,341.046749 208.17164,273.167449 514.162364,273.937555 C515.879497,273.937555 517.59663,273.947556 519.313763,273.957557 C525.417817,273.987561 531.557155,274.044236 537.731777,274.127581 C542.565686,274.19759 547.419135,274.284269 552.292123,274.387616 C554.397375,274.427622 556.502627,274.477629 558.61964,274.527635 C559.466445,274.547638 560.301489,274.567641 561.136533,274.587644 C563.077129,274.637651 565.029485,274.687657 566.993603,274.747666 C570.674853,274.847679 574.367865,274.967696 578.072638,275.087712 C581.318662,275.197727 584.580431,275.317744 587.857943,275.447762 C589.104629,275.487767 590.374837,275.537774 591.633283,275.597782 C597.572681,275.827814 603.535602,276.094517 609.522044,276.397892 C610.909864,276.467901 612.297684,276.537911 613.697265,276.607921 C615.614338,276.697933 617.543172,276.807948 619.460245,276.907962 C622.00066,277.047981 624.541076,277.191334 627.081492,277.338021 C630.386385,277.528047 633.679516,277.728074 636.984409,277.938103 C643.899985,278.368162 650.854765,278.84156 657.848749,279.358297 C663.047193,279.728348 668.257397,280.138404 673.491124,280.558462 C675.713941,280.738533 677.944645,280.925225 680.183238,281.118539 C683.605742,281.398577 687.036088,281.695284 690.474274,282.00866 C692.661854,282.208688 694.861195,282.408715 697.048776,282.608743 C699.695042,282.848776 702.329547,283.09881 704.975814,283.358845 C707.610319,283.618881 710.268346,283.878917 712.914613,284.148954 C715.57264,284.418991 718.230668,284.692362 720.888696,284.969066 C723.558484,285.249104 726.216512,285.529143 728.886301,285.829184 C731.520806,286.109222 734.155311,286.409263 736.801578,286.709305 C748.068792,287.979479 759.418334,289.363001 770.850205,290.859873 C773.037786,291.139912 775.248888,291.429951 777.44823,291.729992 C779.718138,292.030034 781.995887,292.340076 784.281477,292.66012 C787.456997,293.090179 790.644278,293.536907 793.84332,294.000303 C796.583676,294.390357 799.324032,294.78041 802.076149,295.190467 C804.557759,295.550566 807.062891,295.920567 809.556262,296.300669 C809.815008,296.340674 810.073754,296.38068 810.3325,296.420685 C813.084617,296.830741 815.848495,297.2608 818.600612,297.690859 C821.364491,298.120918 824.14013,298.560978 826.904008,299.001039 C829.679695,299.441099 832.455334,299.891161 835.230927,300.351224 C838.018327,300.811287 840.793967,301.27135 843.581367,301.741414 C845.757186,302.111465 847.921244,302.481515 850.097063,302.851566 C851.179092,303.041592 852.261121,303.221617 853.34315,303.411643 C855.671864,303.821699 858.00842,304.235089 860.352816,304.651813 C863.151977,305.151881 865.95506,305.655284 868.762062,306.16202 C869.079614,306.222028 869.385405,306.282036 869.702957,306.332043 C874.054595,307.132153 878.410154,307.945597 882.769632,308.772377 C883.357692,308.882392 883.957512,309.002409 884.557332,309.112424 C886.839002,309.542483 889.120672,309.982543 891.402341,310.432605 C893.684011,310.882617 895.965681,311.322727 898.259112,311.78279 C898.354291,311.794652 898.448549,311.811351 898.54138,311.832797 C901.775706,312.472884 904.99827,313.122974 908.244357,313.793065 C909.855639,314.113109 911.466921,314.443154 913.078204,314.783201 C915.289306,315.233263 917.488648,315.693326 919.69975,316.16339 C921.146376,316.473433 922.593001,316.783475 924.051388,317.093518 C925.121656,317.303546 926.191924,317.533578 927.262192,317.773611 C929.520339,318.243675 931.782407,318.730408 934.048395,319.233811 C936.153647,319.693834 938.258899,320.157214 940.364151,320.623951 C940.424291,320.632594 940.483353,320.645987 940.540568,320.663957 C941.046299,320.773972 941.540269,320.883987 942.046,320.994002 C943.586715,321.334049 945.12743,321.684096 946.679906,322.034144 C948.267666,322.394194 949.867187,322.754243 951.466708,323.124294 C952.866289,323.444338 954.277631,323.764382 955.677212,324.094427 C955.717483,324.095251 955.757278,324.102019 955.794824,324.114429 C955.994764,324.154435 956.194704,324.204442 956.394644,324.254449 C958.017688,324.624499 959.640731,324.99455 961.263775,325.384603 C962.886818,325.764656 964.509861,326.144708 966.144666,326.534761 C966.309322,326.564765 966.473979,326.604771 966.638636,326.644776 C967.897027,326.934856 969.155474,327.234897 970.413976,327.544899 C970.413976,327.544899 970.413976,327.534898 970.425737,327.544899 C971.143169,327.704921 971.860601,327.884946 972.578034,328.054969 C974.495107,328.514992 976.41218,328.978373 978.329253,329.44511 C979.564177,329.745151 980.810862,330.045192 982.045787,330.355235 C985.491814,331.205351 988.949602,332.055467 992.40739,332.925587 C995.865178,333.795706 999.334727,334.675827 1002.79252,335.565948 C1004.87424,336.096021 1006.94421,336.636095 1009.02594,337.18617 C1010.9783,337.686239 1012.93066,338.196309 1014.88301,338.71638 C1017.79982,339.486536 1020.72834,340.256601 1023.64509,341.046749 Z" id="Path" fill="#E6E6E6"></path>
                <path d="M1023.2902,342 C733.691709,264.042059 471.09225,268.194968 301.794969,285.407286 C118.382574,304.054371 1.99790761,341.603466 0.844182505,341.980437 L0,340.112991 C1.15715937,339.73501 117.815708,302.097043 301.515864,283.420654 C409.572089,272.448141 518.596842,270.07653 627.171453,276.336683 C761.958378,284.094763 895.175762,305.498227 1024,340.093419 L1023.2902,342 Z" id="Path" fill="#3F3D56"></path>
                <polygon id="Path" fill="#3F3D56" points="831.837966 108.014821 832.363939 108.014821 841.834973 316.043324 821.84096 316.043324"></polygon>
                <polygon id="Rectangle" fill="#3F3D56" transform="translate(846.430910, 230.512374) rotate(62.234130) translate(-846.430910, -230.512374) " points="843.341256 213.427251 851.736315 212.840729 849.520564 247.597496 841.125504 248.184018"></polygon>
                <path d="M372.255305,319.967801 C372.255305,319.967801 373.067485,305.495989 389.717276,307.178139" id="Path" fill="#3F3D56"></path>
                <ellipse id="Oval" fill="#FFDE63" cx="367.550832" cy="299.109854" rx="8.33310466" ry="7.0862309"></ellipse>
                <rect id="Rectangle" fill="#3F3D56" x="366.19492" y="311.042638" width="2.3522368" height="14.0019184"></rect>
                <path d="M675.693853,322.968212 C675.693853,322.968212 676.506033,308.4964 693.155824,310.17855" id="Path" fill="#3F3D56"></path>
                <ellipse id="Oval" fill="#FFDE63" cx="670.989379" cy="302.110265" rx="8.33310466" ry="7.0862309"></ellipse>
                <rect id="Rectangle" fill="#3F3D56" x="669.633467" y="314.04305" width="2.3522368" height="14.0019184"></rect>
                <path d="M175.843532,297.964787 C175.843532,297.964787 176.655712,283.492974 193.305503,285.175124" id="Path" fill="#3F3D56"></path>
                <ellipse id="Oval" fill="#FFDE63" cx="171.139059" cy="277.106839" rx="8.33310466" ry="7.0862309"></ellipse>
                <rect id="Rectangle" fill="#3F3D56" x="169.783147" y="289.039624" width="2.3522368" height="14.0019184"></rect>
                <path d="M304.040438,278.962183 C304.040438,278.962183 304.852618,264.49037 321.502409,266.172521" id="Path" fill="#3F3D56"></path>
                <ellipse id="Oval" fill="#FFDE63" cx="299.335964" cy="258.104235" rx="8.33310466" ry="7.0862309"></ellipse>
                <rect id="Rectangle" fill="#3F3D56" x="297.980053" y="270.03702" width="2.3522368" height="14.0019184"></rect>
                <path d="M625.120761,305.965883 C625.120761,305.965883 625.932942,291.49407 642.582732,293.176221" id="Path" fill="#3F3D56"></path>
                <ellipse id="Oval" fill="#FFDE63" cx="620.416288" cy="285.107935" rx="8.33310466" ry="7.0862309"></ellipse>
                <rect id="Rectangle" fill="#3F3D56" x="619.060376" y="297.04072" width="2.3522368" height="14.0019184"></rect>
                <path d="M115.439785,7.466925 L126.266754,0.10312607 C117.855767,-0.685982047 114.399837,3.21481241 112.985461,6.30233544 C106.414487,3.98201752 99.2611117,7.02289416 99.2611117,7.02289416 L120.923907,13.7105204 C119.831054,11.228288 117.928664,9.06244469 115.439785,7.466925 L115.439785,7.466925 Z" id="Path" fill="#3F3D56"></path>
                <path d="M745.839248,14.4678842 L756.666217,7.10408528 C748.25523,6.31497717 744.7993,10.2157716 743.384924,13.3032946 C736.81395,10.9829767 729.660575,14.0238534 729.660575,14.0238534 L751.32337,20.7114797 C750.230517,18.2292473 748.328127,16.0634039 745.839248,14.4678842 Z" id="Path" fill="#3F3D56"></path>
                <path d="M56.6338646,58.4739136 L67.4608342,51.1101146 C59.049847,50.3210065 55.5939172,54.221801 54.1795407,57.309324 C47.6085672,54.9890061 40.4551916,58.0298827 40.4551916,58.0298827 L62.1179871,64.717509 C61.0251338,62.2352766 59.1227443,60.0694333 56.6338646,58.4739136 L56.6338646,58.4739136 Z" id="Path" fill="#3F3D56"></path>
            </g>
        </g>
    </g>
</svg>