<?xml version="1.0" encoding="UTF-8"?>
<svg width="703px" height="422px" viewBox="0 0 703 422" version="1.1" xmlns="http://www.w3.org/2000/svg" xmlns:xlink="http://www.w3.org/1999/xlink">
    <title>Group 35</title>
    <g id="Page-1" stroke="none" stroke-width="1" fill="none" fill-rule="evenodd">
        <g id="Home" transform="translate(-855.000000, -96.000000)" fill-rule="nonzero">
            <g id="Group-35" transform="translate(855.000000, 96.000000)">
                <g id="Group-34">
                    <g id="Group-3" transform="translate(0.000000, 10.000000)" fill="#FFDE63" opacity="0.1">
                        <path d="M701.684362,191 L637,191 L637,269.92674 L696.956508,269.92674 C697.111289,270.741148 697.259034,271.555556 697.434922,272.362882 L637,272.362882 L637,336 L637.302526,335.900855 C639.009807,335.29654 640.705362,334.654457 642.389191,333.974603 L643.472657,333.528449 C645.198699,332.815547 646.894254,332.053073 648.559322,331.241026 C649.157339,330.964835 649.748321,330.674481 650.332267,330.377045 C659.633521,325.767287 668.208294,319.801559 675.779661,312.672527 C675.997761,312.481319 676.201791,312.283028 676.398785,312.091819 C677.433003,311.086203 678.446114,310.073504 679.431084,309.032479 L680.514551,307.871062 C681.675408,306.603419 682.794052,305.293284 683.884554,303.968987 L684.362968,303.388278 C688.74685,297.977837 692.430106,292.028704 695.324272,285.683761 C695.415734,285.492552 695.493124,285.294261 695.57755,285.103053 C696.456988,283.105983 697.251999,281.080586 697.941477,279.01978 C698.236968,278.148718 698.518388,277.277656 698.764631,276.406593 C698.849057,276.144567 698.926447,275.889621 698.996802,275.634676 C702.584906,262.993651 703,249.856899 703,236.790965 C703,235.268376 703,233.738706 703,232.223199 C703,226.947253 702.92261,221.600488 702.824113,216.324542 C702.824113,214.950672 702.760793,213.583883 702.725616,212.20293 C702.64119,208.695075 702.514551,205.191941 702.345699,201.693529 C702.303486,200.716239 702.261273,199.746032 702.197953,198.782906 C702.197953,198.223443 702.141669,197.66398 702.106492,197.104518 C701.965782,195.029548 701.839143,193.018315 701.684362,191 Z" id="Path"></path>
                        <path d="M636.020809,106 L671,106 C665.265452,97.8932204 659.045799,90.1533387 652.376338,82.8242766 C647.174197,77.0515173 641.715418,71.4199012 636,66 L636.020809,106 Z" id="Path"></path>
                        <path d="M636,107.021498 L636,191 L701,191 C701,190.756356 700.957447,190.505545 700.93617,190.283399 C700.879433,189.624126 700.822695,188.964852 700.758865,188.298413 C700.695035,187.631974 700.609929,186.750555 700.524823,185.969459 C700.439716,185.188364 700.35461,184.285446 700.255319,183.454189 C700.156028,182.622931 700.070922,181.770176 699.964539,180.931752 C699.858156,180.093329 699.758865,179.254905 699.64539,178.423648 C699.531915,177.59239 699.425532,176.746801 699.297872,175.915543 C699.198582,175.198942 699.106383,174.539669 699,173.844566 C698.851064,172.869988 698.695035,171.888244 698.531915,170.920833 C698.513418,170.776225 698.487377,170.632705 698.453901,170.490872 C697.280383,163.370546 695.684121,156.327975 693.673759,149.401297 C691.548228,142.062788 688.851886,134.905535 685.609929,127.996417 C682.113877,120.688162 678.056547,113.667878 673.475177,107 L636,107.021498 Z" id="Path"></path>
                        <path d="M481.550889,192.936585 L481.550889,272.321951 L621,272.321951 L621,192.936585 L481.550889,192.936585 Z M481.550889,275.336585 L481.550889,328.624081 C497.790352,323.462672 516.359887,325.545593 533.196077,329.782045 C546.231691,333.072355 558.933424,337.548872 571.947727,340.768575 C577.760475,342.244248 583.661393,343.35265 589.61507,344.087128 L591.078469,344.242465 C591.788857,344.313072 592.499244,344.38368 593.209632,344.440166 L595.340795,344.588442 L595.561015,344.588442 L596.512935,344.588442 C596.621747,344.595463 596.730902,344.595463 596.839713,344.588442 L597.990541,344.630806 L598.026061,344.630806 C598.573059,344.630806 599.127162,344.630806 599.681264,344.673171 L600.391652,344.673171 C600.93865,344.673171 601.492753,344.673171 602.046855,344.673171 L603.261618,344.673171 L604.241953,344.673171 C604.661082,344.673171 605.073107,344.673171 605.485132,344.630806 C606.152896,344.630806 606.820661,344.57432 607.495529,344.524895 L608.738708,344.447227 L610.273145,344.327194 C611.360038,344.242465 612.404308,344.129493 613.505409,344.002399 C613.931642,343.952974 614.364979,343.903549 614.791211,343.840002 L615.423456,343.762334 C616.496142,343.621119 617.55462,343.451661 618.627305,343.275142 C619.415835,343.155109 620.204366,343.006833 621,342.865618 L621,275.336585 L481.550889,275.336585 Z M585.267852,105.290434 L585.267852,107.731713 L481.550889,107.731713 L481.550889,190.926829 L621,190.926829 L621,107.7601 L614.005531,107.7601 L614.005531,105.318821 L621,105.318821 L621,51.5680907 C593.874244,29.7314131 562.168353,12.628263 526.855162,4.72958821 C511.982496,1.43949951 496.782764,-0.143852475 481.550889,0.0102542399 L481.550889,105.318821 L585.267852,105.290434 Z M265.85622,105.043998 L266.346499,105.512195 L465.499192,105.512195 L465.499192,1.00487805 C430.042794,3.94884605 395.467476,15.8382204 367.592636,35.5379774 C354.198786,44.9941445 342.16919,56.2025046 327.141077,63.4595631 C319.255079,67.366255 310.640019,69.5889868 301.84553,69.9859499 L265.85622,105.043998 Z M264.881103,61.297561 L264.881103,85.4146341 L283.914378,66.3017633 C276.836642,63.7851991 271.255985,62.0641006 264.852989,61.326487 L264.881103,61.297561 Z M263.849758,359.161219 L264.489328,359.161219 L264.489328,410.995122 C271.752005,410.45622 278.986257,409.714047 286.192083,408.768604 C318.414306,404.625652 349.988105,396.464167 380.173397,384.475451 L380.173397,384.475451 C383.413887,383.180194 386.630689,381.842393 389.823804,380.462046 C391.950967,379.540239 394.066287,378.594796 396.169763,377.625718 C399.324977,376.17919 402.456503,374.692481 405.564341,373.165591 C419.317409,366.420909 432.583778,358.730089 445.267449,350.148786 C446.056253,349.616974 446.852162,349.078072 447.63386,348.532078 C449.206729,347.444819 450.767754,346.348106 452.316936,345.241937 C453.091527,344.681763 453.866118,344.121588 454.633602,343.554322 L456.211209,342.348882 C457.803029,341.164715 459.387742,339.973457 460.993774,338.803472 L460.993774,338.803472 C462.478999,337.739849 463.978436,336.676225 465.499192,335.68351 L465.499192,274.418816 L305.500002,274.418816 C305.613704,274.057184 305.720299,273.709734 305.841106,273.326829 C305.713192,273.695552 305.599491,274.035911 305.492896,274.418816 L264.460903,274.418816 L264.460903,359.147038 L263.849758,359.161219 Z M264.852989,107.521951 L264.852989,190.926829 L465.499192,190.926829 L465.499192,107.536183 L264.852989,107.521951 Z M264.852989,192.936585 L264.852989,272.321951 L465.499192,272.321951 L465.499192,192.950829 L264.852989,192.936585 Z M224.723748,64.8093822 L248.801292,88.4292683 L248.801292,62.302439 C240.733643,62.8066287 232.707795,63.6422764 224.723748,64.8093822 Z M54.174475,192.936585 L54.174475,272.321951 L249.804523,272.321951 L249.804523,192.936585 L54.174475,192.936585 Z M101.464652,388.043959 C131.119814,399.304642 162.125935,406.642481 193.691871,409.870244 L193.826945,409.870244 C199.793906,410.498985 205.777454,410.985905 211.777591,411.331003 L211.997975,411.331003 L211.997975,411.331003 C224.574091,412.040109 237.199971,412.203203 249.804523,411.735193 L249.804523,274.331707 L54.174475,274.331707 L54.8853916,365.3242 M0,272.321951 L38.1227787,272.321951 L38.1227787,192.936585 L23.0436324,192.936585 C21.4774239,195.728785 19.960379,198.53523 18.5205909,201.384413 C17.7480217,202.899229 16.9965225,204.430665 16.2660935,205.978721 C6.34209085,226.870357 0.0351167821,249.834773 0,272.321951 Z M0,274.331707 C0.309255579,290.406843 3.89380888,306.183765 11.7587405,320.760733 C18.2952789,332.866787 27.3761473,343.481773 38.1227787,352.712195 L38.1227787,274.331707 L0,274.331707 Z M24.0775444,190.926829 L38.1227787,190.926829 L38.1227787,170.829268 C33.0604886,177.269845 28.3809214,183.979708 24.1064144,190.926829 L24.0775444,190.926829 Z M111.358643,105.512195 L245.30772,105.512195 L245.791599,105.039267 L245.080013,104.322709 L245.080013,104.322709 L207.415729,67.3268293 C196.236503,69.6765686 185.196738,72.6549474 174.348296,76.247974 C173.323611,76.5847562 172.298927,76.9645319 171.281358,77.2869829 C150.334632,84.4414818 130.238169,93.9074571 111.358643,105.512195 L111.358643,105.512195 Z M54.174475,151.581144 L54.174475,190.926829 L225.723917,190.926829 L225.723917,190.926829 L225.759455,190.926829 L249.804523,190.926829 L249.804523,109.757663 L247.060983,107.521951 L107.438956,107.521951 C87.8643158,119.849451 69.9613434,134.658391 54.174475,151.581144 Z" id="Shape"></path>
                        <path d="M636,149 L636,190 L701,190 C701,189.759986 700.957447,189.512913 700.93617,189.294077 C700.879433,188.644628 700.822695,187.995179 700.758865,187.338671 C700.695035,186.682163 700.609929,185.813877 700.524823,185.044421 C700.439716,184.274966 700.35461,183.385503 700.255319,182.566632 C700.156028,181.747762 700.070922,180.907713 699.964539,180.081784 C699.858156,179.255854 699.758865,178.429924 699.64539,177.611054 C699.531915,176.792183 699.425532,175.959194 699.297872,175.140324 C699.198582,174.434401 699.106383,173.784952 699,173.100207 C698.851064,172.140152 698.695035,171.173037 698.531915,170.220041 C698.513418,170.077588 698.487377,169.936207 698.453901,169.796488 C697.280383,162.782265 695.684121,155.844639 693.673759,149.021178 L636,149 Z" id="Path"></path>
                        <path d="M701.684362,191 L637,191 L637,269.92674 L696.956508,269.92674 C697.111289,270.741148 697.259034,271.555556 697.434922,272.362882 L637,272.362882 L637,336 L637.302526,335.900855 C639.009807,335.29654 640.705362,334.654457 642.389191,333.974603 L643.472657,333.528449 C645.198699,332.815547 646.894254,332.053073 648.559322,331.241026 C649.157339,330.964835 649.748321,330.674481 650.332267,330.377045 C659.633521,325.767287 668.208294,319.801559 675.779661,312.672527 C675.997761,312.481319 676.201791,312.283028 676.398785,312.091819 C677.433003,311.086203 678.446114,310.073504 679.431084,309.032479 L680.514551,307.871062 C681.675408,306.603419 682.794052,305.293284 683.884554,303.968987 L684.362968,303.388278 C688.74685,297.977837 692.430106,292.028704 695.324272,285.683761 C695.415734,285.492552 695.493124,285.294261 695.57755,285.103053 C696.456988,283.105983 697.251999,281.080586 697.941477,279.01978 C698.236968,278.148718 698.518388,277.277656 698.764631,276.406593 C698.849057,276.144567 698.926447,275.889621 698.996802,275.634676 C702.584906,262.993651 703,249.856899 703,236.790965 C703,235.268376 703,233.738706 703,232.223199 C703,226.947253 702.92261,221.600488 702.824113,216.324542 C702.824113,214.950672 702.760793,213.583883 702.725616,212.20293 C702.64119,208.695075 702.514551,205.191941 702.345699,201.693529 C702.303486,200.716239 702.261273,199.746032 702.197953,198.782906 C702.197953,198.223443 702.141669,197.66398 702.106492,197.104518 C701.965782,195.029548 701.839143,193.018315 701.684362,191 Z" id="Path"></path>
                        <polygon id="Path" points="574 120.777993 574 191 622 191 622 120.777993 615.160712 120.777993 615.160712 97 587.06061 97 587.06061 120.777993"></polygon>
                        <rect id="Rectangle" x="574" y="195" width="48" height="79"></rect>
                        <path d="M622,274 L574,274 L574,340.960818 C579.680547,342.468161 585.446548,343.602429 591.263889,344.35691 L592.694444,344.515876 C593.388889,344.595359 594.083333,344.660391 594.777778,344.718197 L596.861111,344.869937 C596.930556,344.869937 597.006944,344.869937 597.076389,344.869937 C597.381944,344.869937 597.694444,344.869937 598.006944,344.913291 L598.326389,344.913291 C598.701389,344.913291 599.076389,344.913291 599.458333,344.956646 L599.458333,344.956646 C599.993056,344.956646 600.534722,344.956646 601.076389,345 L601.770833,345 C602.3125,345 602.847222,345 603.388889,345 L604.576389,345 L605.534722,345 L606.756944,344.956646 C607.402778,344.956646 608.0625,344.89884 608.715278,344.84826 L609.923611,344.768777 L611.430556,344.645939 C612.486111,344.552005 613.513889,344.443619 614.583333,344.313556 L615.840278,344.147364 L616.458333,344.067881 C617.506944,343.916141 618.541667,343.757175 619.590278,343.569306 C620.368056,343.446469 621.131944,343.294728 621.909722,343.150214 L622,274 Z" id="Path"></path>
                        <rect id="Rectangle" transform="translate(598.500000, 132.500000) rotate(-180.000000) translate(-598.500000, -132.500000) " x="590" y="125" width="17" height="15"></rect>
                        <rect id="Rectangle" transform="translate(598.500000, 171.500000) rotate(-180.000000) translate(-598.500000, -171.500000) " x="590" y="164" width="17" height="15"></rect>
                        <rect id="Rectangle" transform="translate(598.500000, 207.500000) rotate(-180.000000) translate(-598.500000, -207.500000) " x="590" y="200" width="17" height="15"></rect>
                        <rect id="Rectangle" transform="translate(598.500000, 245.500000) rotate(-180.000000) translate(-598.500000, -245.500000) " x="590" y="238" width="17" height="15"></rect>
                        <rect id="Rectangle" transform="translate(598.500000, 285.500000) rotate(-180.000000) translate(-598.500000, -285.500000) " x="590" y="278" width="17" height="15"></rect>
                        <rect id="Rectangle" transform="translate(598.500000, 321.500000) rotate(-180.000000) translate(-598.500000, -321.500000) " x="590" y="314" width="17" height="15"></rect>
                        <rect id="Rectangle" transform="translate(211.000000, 294.000000) rotate(-180.000000) translate(-211.000000, -294.000000) " x="204" y="287" width="14" height="14"></rect>
                        <path d="M637,170 L637,179 L698,179 L698,170 L637,170 Z M692.027663,171 L697,171 L697,179 L692,179 L692.027663,171 Z M686.020661,171 L691,171 L691,179 L686,179 L686.020661,171 Z M680,171 L685,171 L685,179 L680,179 L680,171 Z M674,171 L679,171 L679,179 L674,179 L674,171 Z M668,171 L673,171 L673,179 L668.034341,179 L668,171 Z M661,171 L666,171 L666,179 L661,179 L661,171 Z M655,171 L660,171 L660,179 L655,179 L655,171 Z M649,171 L654,171 L654,179 L649,179 L649,171 Z M643,171 L648,171 L648,179 L643,179 L643,171 Z M637,171 L642,171 L642,179 L637,179 L637,171 Z" id="Shape"></path>
                        <path d="M637,199 L637,208 L698,208 L698,199 L637,199 Z M692.027663,199 L697,199 L697,207 L692,207 L692.027663,199 Z M686.020661,199 L691,199 L691,207 L686,207 L686.020661,199 Z M680,199 L685,199 L685,207 L680,207 L680,199 Z M674,199 L679,199 L679,207 L674,207 L674,199 Z M668,199 L673,199 L673,207 L668.034341,207 L668,199 Z M661,199 L666,199 L666,207 L661,207 L661,199 Z M655,199 L660,199 L660,207 L655,207 L655,199 Z M649,199 L654,199 L654,207 L649,207 L649,199 Z M643,199 L648,199 L648,207 L643,207 L643,199 Z M637,199 L642,199 L642,207 L637,207 L637,199 Z" id="Shape"></path>
                        <path d="M637,224 L637,233 L698,233 L698,224 L637,224 Z M692.027663,225 L697,225 L697,233 L692,233 L692.027663,225 Z M686.020661,225 L691,225 L691,233 L686,233 L686.020661,225 Z M680,225 L685,225 L685,233 L680,233 L680,225 Z M674,225 L679,225 L679,233 L674,233 L674,225 Z M668,225 L673,225 L673,233 L668.034341,233 L668,225 Z M661,225 L666,225 L666,233 L661,233 L661,225 Z M655,225 L660,225 L660,233 L655,233 L655,225 Z M649,225 L654,225 L654,233 L649,233 L649,225 Z M643,225 L648,225 L648,233 L643,233 L643,225 Z M637,225 L642,225 L642,233 L637,233 L637,225 Z" id="Shape"></path>
                        <path d="M637,251 L637,260 L698,260 L698,251 L637,251 Z M692.027663,252 L697,252 L697,260 L692,260 L692.027663,252 Z M686.020661,252 L691,252 L691,260 L686,260 L686.020661,252 Z M680,252 L685,252 L685,260 L680,260 L680,252 Z M674,252 L679,252 L679,260 L674,260 L674,252 Z M668,252 L673,252 L673,260 L668.034341,260 L668,252 Z M661,252 L666,252 L666,260 L661,260 L661,252 Z M655,252 L660,252 L660,260 L655,260 L655,252 Z M649,252 L654,252 L654,260 L649,260 L649,252 Z M643,252 L648,252 L648,260 L643,260 L643,252 Z M637,252 L642,252 L642,260 L637,260 L637,252 Z" id="Shape"></path>
                        <path d="M637,277 L637,286 L694.62849,286 C694.711909,285.814928 694.795328,285.623001 694.871795,285.437928 L692.18849,285.437928 L692.18849,277.568926 L697.186667,277.568926 L697.186667,279.522468 C697.478632,278.686215 697.756695,277.849962 698,277 L637,277 Z M686.020661,277 L691,277 L691,285 L686,285 L686.020661,277 Z M680,277 L685,277 L685,285 L680,285 L680,277 Z M674,277 L679,277 L679,285 L674,285 L674,277 Z M668,277 L673,277 L673,285 L668.034341,285 L668,277 Z M662,277 L667,277 L667,285 L662,285 L662,277 Z M655,277 L660,277 L660,285 L655,285 L655,277 Z M649,277 L654,277 L654,285 L649,285 L649,277 Z M643,277 L648,277 L648,285 L643,285 L643,277 Z M637,277 L642,277 L642,285 L637,285 L637,277 Z" id="Shape"></path>
                        <path d="M638,304 L638,313 L676.47549,313 C676.698901,312.814504 676.894385,312.615267 677.096851,312.436641 L675.051248,312.436641 L675.051248,304.583969 L680.09893,304.583969 L680.09893,309.496183 L681.181075,308.362595 L681.181075,304.583969 L684.525253,304.583969 C684.685829,304.391603 684.839424,304.199237 685,304.020611 L638,304 Z M669,305 L674,305 L674,313 L669.034341,313 L669,305 Z M663,305 L668,305 L668,313 L663,313 L663,305 Z M656,305 L661,305 L661,313 L656,313 L656,305 Z M650,305 L655,305 L655,313 L650,313 L650,305 Z M644,305 L649,305 L649,313 L644,313 L644,305 Z M638,305 L643,305 L643,313 L638,313 L638,305 Z" id="Shape"></path>
                        <path d="M265,361 L265.905287,361 L265.905287,361 L265,361 Z M307.457974,276 L307.457974,276 C307.618914,275.666872 307.769795,275.346807 307.940794,274.994083 C307.769795,275.333743 307.608855,275.666872 307.457974,276 Z M586.829632,106 L586.829632,108.011834 L616,108.011834 L616,106 L586.829632,106 Z M265,361 L265.905287,361 L265.905287,361 L265,361 Z M307.457974,276 L307.457974,276 C307.618914,275.666872 307.769795,275.346807 307.940794,274.994083 C307.769795,275.333743 307.608855,275.666872 307.457974,276 Z M265,361 L265.905287,361 L265.905287,361 L265,361 Z M307.457974,276 L307.457974,276 C307.618914,275.666872 307.769795,275.346807 307.940794,274.994083 C307.769795,275.333743 307.608855,275.666872 307.457974,276 Z" id="Shape"></path>
                    </g>
                    <g id="undraw_Designer_re_5v95" transform="translate(11.000000, 0.000000)">
                        <path d="M476.079303,353.43444 C490.5633,334.0482 496.133652,306.741471 484.866872,285.361446 C474.300379,309.40993 455.487294,328.980998 431.756196,340.611963 C422.587699,345.064674 411.922064,349.071501 407.678231,358.271554 C405.037501,363.995992 405.540372,370.755404 407.663107,376.687333 C409.786099,382.619497 413.396654,387.897747 416.969095,393.102578 L417.157269,394.662651 C439.648063,385.42546 461.595306,372.820674 476.079303,353.43444 Z" id="Path" fill="#E6E6E6"></path>
                        <path d="M484.593355,285.919674 C483.947895,305.863152 477.006707,325.097142 464.755703,340.889688 C462.178972,344.336075 459.072667,347.356571 455.551145,349.839978 C452.042211,352.148783 447.976256,353.480017 443.775745,353.695361 C439.86321,353.974484 435.82868,353.808935 432.052449,355.03003 C428.161685,356.352041 425.02261,359.264324 423.424051,363.035045 C421.333344,367.629291 421.025503,372.697421 420.89747,377.664047 C420.755315,383.178525 420.695424,388.908608 418.082654,393.921522 C417.766084,394.528909 418.731275,394.982418 419.047367,394.375946 C423.59313,385.654335 420.641442,375.455187 423.350452,366.286706 C424.614518,362.008539 427.181303,358.083647 431.471498,356.369229 C435.223089,354.87004 439.383694,355.037215 443.347657,354.788683 C447.448474,354.638411 451.449954,353.490774 455.002548,351.446026 C458.639709,349.149131 461.857727,346.2528 464.5188,342.881063 C470.631357,335.385317 475.522048,326.97938 479.011712,317.971187 C483.05171,307.712193 485.299138,296.840785 485.657092,285.827319 C485.67861,285.145633 484.615085,285.242454 484.593375,285.919674 L484.593355,285.919674 Z" id="Path" fill="#FFFFFF"></path>
                        <path d="M470.31817,336.388389 C476.25738,339.846488 483.801005,338.446983 488.13767,333.082488 C488.560736,332.555466 487.770258,331.866291 487.346623,332.39402 C483.315955,337.398811 476.278181,338.689446 470.764551,335.434953 C470.184239,335.093342 469.741178,336.048733 470.31817,336.388389 L470.31817,336.388389 Z" id="Path" fill="#FFFFFF"></path>
                        <path d="M446.191155,354.908203 C444.254977,348.15128 445.009834,340.933207 448.305208,334.693274 C448.632219,334.075298 447.628419,333.614532 447.301799,334.231759 C443.885032,340.731403 443.115197,348.244467 445.145931,355.271566 C445.339966,355.941224 446.384142,355.574221 446.191162,354.908203 L446.191155,354.908203 Z" id="Path" fill="#FFFFFF"></path>
                        <path d="M481.909189,308.513322 C479.535642,307.556747 477.713046,305.199317 477.058998,302.239856 C476.895747,301.492153 475.975374,301.901498 476.137578,302.644324 C476.872271,305.908499 478.877315,308.513453 481.490658,309.599051 C481.735301,309.729544 482.020454,309.604374 482.142199,309.313052 C482.256312,309.013148 482.152366,308.656386 481.909189,308.513322 L481.909189,308.513322 Z" id="Path" fill="#FFFFFF"></path>
                        <path d="M405.975458,269.746988 C406.073531,270.16287 406.171603,270.578751 406.26387,271.001452 C407.553701,276.599649 408.39033,282.294248 408.765502,288.029057 C408.801497,288.471974 408.831352,288.921393 408.854652,289.364431 C409.612452,303.190579 407.817803,317.038422 403.561936,330.204009 C401.863658,335.441352 399.772653,340.540829 397.307025,345.458295 C393.901522,352.249312 389.673194,359.339301 388.719657,366.652754 C388.611677,367.414645 388.550609,368.182548 388.536804,368.952053 L416.751783,396.037314 C416.846537,396.066426 416.935517,396.102293 417.030586,396.131703 L418.108083,397.26506 C418.252812,397.020401 418.397711,396.763513 418.54244,396.518854 C418.62698,396.377264 418.705236,396.22968 418.789776,396.088109 C418.844146,395.991821 418.898239,395.895191 418.95276,395.81143 C418.970978,395.779448 418.988875,395.747162 419.000997,395.721638 C419.055518,395.637877 419.097344,395.554237 419.145726,395.476979 C419.959578,394.043298 420.764849,392.601363 421.56154,391.151174 C421.567673,391.144673 421.567673,391.144673 421.567522,391.132126 C427.609959,380.066703 432.789274,368.395438 436.047013,356.302584 C436.144903,355.938722 436.249248,355.568664 436.334248,355.192427 C437.772686,349.733315 438.7662,344.164796 439.304865,338.542481 C439.590002,335.462923 439.720339,332.370786 439.695374,329.277939 C439.615624,321.286617 438.289713,313.357676 435.766251,305.781794 C430.733554,290.680102 420.966736,277.369381 407.044448,270.278199 C406.688151,270.097097 406.337875,269.921639 405.975458,269.746988 Z" id="Path" fill="#E6E6E6"></path>
                        <path d="M404.254034,269.793326 C416.105503,286.116178 422.356672,305.648493 422.119641,325.615947 C422.147237,329.915362 421.476424,334.192129 420.131895,338.2888 C418.689288,342.238401 416.183303,345.741 412.874319,348.432667 C409.840969,351.002553 406.431554,353.290322 404.094673,356.531126 C401.726553,359.921269 400.961706,364.131216 401.992333,368.103042 C403.130812,373.028116 406.024721,377.262422 409.002962,381.307761 C412.309724,385.799338 415.817744,390.413837 416.78828,395.986585 C416.905869,396.661788 417.978449,396.445221 417.861037,395.771054 C416.172474,386.075421 407.421918,379.696397 403.950555,370.745439 C402.330752,366.56876 401.997973,361.892984 404.449868,357.949695 C406.593941,354.50146 410.107679,352.139374 413.202192,349.563061 C416.469858,346.983182 419.03697,343.665959 420.679282,339.901163 C422.234369,335.88416 423.07382,331.6396 423.161689,327.349242 C423.518236,317.693317 422.308338,308.043025 419.576314,298.751885 C416.518865,288.131195 411.612078,278.096402 405.068249,269.081667 C404.662995,268.523874 403.85144,269.239164 404.254021,269.793314 L404.254034,269.793326 Z" id="Path" fill="#FFFFFF"></path>
                        <path d="M423.846052,317.453475 C430.717627,316.609979 435.959936,310.964145 436.229396,304.116932 C436.253472,303.446037 435.201128,303.377504 435.177027,304.049291 C434.937918,310.428228 430.038095,315.68361 423.632313,316.431757 C422.95866,316.511234 423.176251,317.532497 423.846027,317.453475 L423.846052,317.453475 Z" id="Path" fill="#FFFFFF"></path>
                        <path d="M416.059126,346.839943 C410.335506,342.711514 406.472537,336.700756 405.240497,330.006216 C405.119006,329.342847 404.033524,329.555574 404.154869,330.218099 C405.450745,337.18234 409.484243,343.429753 415.450396,347.713539 C416.019358,348.12148 416.624993,347.245634 416.059126,346.839912 L416.059126,346.839943 Z" id="Path" fill="#FFFFFF"></path>
                        <path d="M415.671112,288.792686 C413.191811,289.322388 410.453263,289.036025 408.383443,288.030634 C407.862166,287.775848 407.30213,288.31447 407.820019,288.567604 C410.114093,289.67125 413.132708,289.991206 415.879146,289.421826 C416.151098,289.380853 416.325464,289.214675 416.277547,289.042132 C416.218836,288.868941 415.948303,288.757662 415.671112,288.792686 L415.671112,288.792686 Z" id="Path" fill="#FFFFFF"></path>
                        <path d="M11.2170423,252.8998 C-1.39603386,232.546362 -4.64776302,205.063378 8.10073675,184.795181 C16.5043963,209.451605 33.3392564,230.334267 55.6267447,243.74842 C64.2408016,248.890467 74.3559469,253.710757 77.7680549,263.159497 C79.8912728,269.038688 78.8546317,275.691267 76.2993686,281.394923 C73.743841,287.09882 69.785181,292.036282 65.8697281,296.904098 L65.5599013,298.433735 C44.2934107,287.488955 23.8301311,273.253245 11.2170423,252.8998 Z" id="Path" fill="#E6E6E6"></path>
                        <path d="M8.11169565,185.398598 C7.12232507,205.207348 12.4957758,224.819514 23.4688144,241.449427 C25.7665225,245.070769 28.6294843,248.312792 31.9523005,251.056141 C35.2768302,253.625497 39.2393427,255.271229 43.4281247,255.82234 C47.323288,256.413473 51.377111,256.573906 55.0585244,258.087238 C58.8463632,259.709746 61.7510164,262.847203 63.042564,266.711185 C64.7594173,271.430562 64.652007,276.47602 64.3728632,281.40646 C64.0629237,286.880775 63.6529281,292.562043 65.8582381,297.738149 C66.1254367,298.365307 65.1216899,298.736954 64.8548889,298.110743 C61.0180345,289.105204 64.8104167,279.238869 62.8495883,269.938333 C61.9346257,265.598535 59.6861259,261.503992 55.5304772,259.46062 C51.8965431,257.673782 47.7163436,257.504818 43.767161,256.939864 C39.6728738,256.461228 35.7598674,255.002555 32.3699582,252.691266 C28.9160422,250.123386 25.9310262,246.995384 23.542736,243.441209 C18.0363423,235.524082 13.8281924,226.803539 11.0724429,217.59904 C7.86816256,207.111181 6.50921994,196.160785 7.05441049,185.221628 C7.08843145,184.544579 8.14552427,184.726001 8.11171489,185.39863 L8.11169565,185.398598 Z" id="Path" fill="#FFFFFF"></path>
                        <path d="M20.4977002,236.188694 C14.192353,239.509575 6.65750969,237.248669 2.69894778,230.847998 C2.31306819,230.219453 3.17101013,229.521382 3.557404,230.150755 C7.23510251,236.120849 14.2659139,238.21335 20.1230649,235.081005 C20.7394551,234.752359 21.1105667,235.861931 20.4977002,236.188694 L20.4977002,236.188694 Z" id="Path" fill="#FFFFFF"></path>
                        <path d="M41.2368363,255.167627 C43.8301766,248.617283 43.6753823,241.397916 40.8033194,234.94907 C40.518209,234.310354 41.5983027,233.932213 41.883075,234.570158 C44.8583581,241.286171 45.0030351,248.799339 42.2882326,255.610253 C42.0289974,256.259263 40.9790087,255.813117 41.2368363,255.167627 L41.2368363,255.167627 Z" id="Path" fill="#FFFFFF"></path>
                        <path d="M9.05158376,205.517078 C11.9728705,204.919575 14.3452884,203.112143 15.36493,200.70724 C15.620172,200.099488 16.6907866,200.51619 16.4372053,201.11999 C15.2966346,203.771401 12.6858116,205.76935 9.46681382,206.454128 C9.16317508,206.542222 8.83133563,206.414488 8.70860343,206.162274 C8.59570018,205.903564 8.74870349,205.615743 9.05158376,205.517078 L9.05158376,205.517078 Z" id="Path" fill="#FFFFFF"></path>
                        <path d="M89.1911404,173.518072 C89.0565047,173.926319 88.9218689,174.334558 88.7926455,174.7501 C87.011356,180.2479 85.6853737,185.879498 84.8277829,191.589323 C84.7543746,192.029735 84.6867015,192.477154 84.6262749,192.918733 C82.708668,206.696732 83.3984652,220.706507 86.660601,234.235878 C87.9636909,239.618354 89.6796346,244.895143 91.7935768,250.020563 C94.7134076,257.098824 98.4496427,264.544078 98.8198037,271.94352 C98.8672004,272.715078 98.8661456,273.488794 98.8166455,274.260223 L67.7353362,299.051273 C67.6360612,299.072616 67.5421404,299.101198 67.4425232,299.122816 L66.2473808,300.168675 C66.1196558,299.911849 65.9927768,299.642774 65.8650324,299.385955 C65.7903194,299.237282 65.7225236,299.083087 65.6478042,298.934415 C65.6001915,298.833551 65.552863,298.732368 65.5040748,298.644034 C65.4880963,298.610517 65.4724665,298.576725 65.4621844,298.550178 C65.4133769,298.461844 65.3775382,298.374684 65.3344658,298.293359 C64.6210373,296.791229 63.9170619,295.281538 63.2225398,293.764286 C63.2168046,293.757272 63.2168046,293.757272 63.2180188,293.744747 C57.9559746,282.170683 53.6263244,270.061183 51.2958333,257.687806 C51.2258416,257.315513 51.1497724,256.936485 51.0939766,256.552867 C50.0748467,250.969766 49.5195726,245.313763 49.4336997,239.641342 C49.3968042,236.535155 49.5191874,233.429115 49.8003795,230.335146 C50.5425154,222.342177 52.5533604,214.514206 55.7591956,207.138214 C62.1521903,192.435181 73.2365096,179.914566 88.0545387,173.961883 C88.4336578,173.809882 88.8062279,173.663071 89.1911404,173.518072 Z" id="Path" fill="#E6E6E6"></path>
                        <path d="M89.1831576,174.469728 C76.4680447,189.869861 68.8789662,208.926273 67.4938577,228.932234 C67.1199992,233.233711 67.4195708,237.567843 68.3815438,241.77507 C69.4497063,245.842854 71.5765322,249.547435 74.5410392,252.503897 C77.2503404,255.316599 80.344052,257.876726 82.3294421,261.30586 C84.3327896,264.886955 84.7281809,269.161659 83.4162569,273.055772 C81.9236009,277.895522 78.7987446,281.904762 75.6080472,285.718173 C72.0653797,289.952231 68.3192608,294.29339 66.9357944,299.794767 C66.7681706,300.461336 65.7542627,300.159575 65.9216337,299.494021 C68.3286206,289.922572 77.2585627,284.230448 81.3197496,275.545642 C83.2147709,271.493154 83.9125048,266.839119 81.8732878,262.697698 C80.0900852,259.076208 76.9020549,256.433437 74.1344648,253.609458 C71.2006558,250.768173 69.0000712,247.244311 67.72494,243.345695 C66.5540572,239.201532 66.0897224,234.886276 66.3518193,230.584718 C66.7889966,220.891014 68.7320318,211.32704 72.1097457,202.243153 C75.9077955,191.854175 81.4368519,182.19817 88.457698,173.692912 C88.8924593,173.166671 89.6150749,173.946962 89.1831576,174.46976 L89.1831576,174.469728 Z" id="Path" fill="#FFFFFF"></path>
                        <path d="M68.6409688,222.084346 C61.2494008,220.695568 56.0582616,214.666695 56.3784894,207.842976 C56.3944768,207.563036 56.6526663,207.344845 56.9624643,207.349398 C57.2722623,207.354095 57.5223541,207.579874 57.5281237,207.860139 C57.2168448,214.216229 62.0707692,219.829767 68.9647098,221.08649 C69.6896338,221.219444 69.3617412,222.216535 68.6409757,222.084346 L68.6409688,222.084346 Z" id="Path" fill="#FFFFFF"></path>
                        <path d="M73.9596932,250.537604 C79.7641364,246.670001 83.9478329,240.67862 85.676549,233.75815 C85.8472859,233.072349 86.8659038,233.382897 86.6953702,234.067863 C84.8834472,241.265987 80.5174319,247.491772 74.468653,251.502732 C73.8918606,251.884626 73.3860372,250.917407 73.9596932,250.537591 L73.9596932,250.537604 Z" id="Path" fill="#FFFFFF"></path>
                        <path d="M76.9568801,191.381108 C79.3380058,192.141837 82.0802252,191.971954 84.2543232,190.929024 C84.8020722,190.664524 85.2860255,191.322025 84.7418464,191.5848 C82.3335725,192.728357 79.3103532,192.920607 76.6704319,192.098072 C76.4070439,192.034484 76.2561674,191.831538 76.325698,191.634366 C76.4059828,191.437084 76.6875545,191.324105 76.9568801,191.381108 L76.9568801,191.381108 Z" id="Path" fill="#FFFFFF"></path>
                        <path d="M368.142928,25.2763254 C365.126885,22.0860252 361.942546,19.0595593 358.603559,16.2099011 C352.082572,10.6731026 344.863279,5.96508574 336.81617,2.99932233 C333.786542,1.87908388 330.65609,1.05394606 327.468271,0.535363141 C327.08535,0.473374519 326.708065,0.411335293 326.325107,0.360574202 C326.297027,0.357753074 326.268735,0.357753074 326.240655,0.360574202 C326.181729,0.343885474 326.121417,0.332563392 326.060456,0.326746125 C325.277722,0.225261895 324.494944,0.146314956 323.706569,0.0899495876 C319.460829,-0.192654728 315.19707,0.191643883 311.069994,1.22890197 C308.67544,1.83379987 306.338802,2.64886183 304.087207,3.66462471 C301.831585,4.77032764 299.644565,6.01113052 297.538039,7.38028599 C296.406721,8.06829031 295.241451,8.69870015 294.046674,9.26911094 C290.558272,10.9240151 286.865589,12.1071629 283.065698,12.7874523 C280.499627,13.2483724 277.901085,13.5047761 275.294517,13.5542516 C273.030768,13.5993704 270.896495,13.6782794 268.750983,14.4958461 C264.107908,16.2426064 260.563955,20.0858288 259.194734,24.8590724 C259.085439,25.2881672 259.268087,25.7385 259.645232,25.9698073 C260.225232,26.3870729 260.788358,26.8606723 261.402182,27.2328191 C261.943832,27.4803363 262.521951,27.6383687 263.114075,27.7007763 C264.082677,27.9037827 265.053143,28.1011343 266.025472,28.2928309 C269.601312,29.0032332 273.192185,29.6328415 276.798092,30.1816559 C284.051171,31.2811316 291.345542,32.0554602 298.681203,32.5046415 C298.725974,32.5112013 298.771108,32.51497 298.816346,32.515926 C307.103702,33.0167407 315.41105,33.0976591 323.706569,32.7583711 C324.962329,32.70761 326.212492,32.6455961 327.468252,32.5722977 C332.699692,32.2790915 337.918001,31.8167449 343.123178,31.185258 C347.937906,30.5988836 352.733869,29.871542 357.511067,29.0032332 C360.923617,28.3830307 364.323044,27.6913979 367.709348,26.9283348 C368.043819,26.8292491 368.30228,26.5623967 368.390931,26.2246236 C368.479582,25.8868504 368.385537,25.5272489 368.142928,25.2763254 L368.142928,25.2763254 Z" id="Path" fill="#E6E6E6"></path>
                        <path d="M297.904686,70.3831242 C293.058572,65.1932199 287.719271,60.4879725 281.962335,56.3339627 C280.053296,54.9921866 278.087962,53.7293425 276.066325,52.5735818 C273.587725,51.1412345 271.013757,49.8810587 268.362603,48.8019555 C267.771318,48.5595366 267.174397,48.3284072 266.577477,48.1085294 C263.186237,46.8510525 259.668501,45.9663742 256.08626,45.4700848 C256.058109,45.4644431 256.029965,45.4700848 256.001814,45.4644431 C255.94548,45.4531852 255.883543,45.441902 255.827241,45.4306124 C254.090768,45.2051747 252.341031,45.0978117 250.590057,45.1092613 C249.334272,45.1092613 248.072858,45.1769355 246.822677,45.3009563 C244.80286,45.5001579 242.800283,45.846856 240.830944,46.338281 C239.856701,46.5807315 238.888125,46.8625976 237.936423,47.183936 C236.548404,47.641276 235.18558,48.1719663 233.85369,48.7737727 C233.831181,48.7850623 233.814269,48.7907039 233.791778,48.8019555 C231.556028,49.8969604 229.389513,51.1283032 227.304451,52.4890397 C227.259388,52.5172225 227.208728,52.5454053 227.163664,52.5735818 C224.795337,53.991943 222.289766,55.1668168 219.685214,56.0802606 C217.449516,56.8629903 215.156237,57.4699394 212.826244,57.895585 C210.260425,58.357678 207.661608,58.6122046 205.054982,58.6566979 C202.791168,58.7018056 200.656902,58.7807061 198.516994,59.6038262 C193.872423,61.3500247 190.326521,65.1926235 188.954963,69.9659415 C188.847896,70.3948352 189.030024,70.843829 189.405468,71.0765566 C189.985477,71.4937393 190.554253,71.9616777 191.162444,72.3337843 C191.703427,72.5831424 192.281868,72.7412432 192.874368,72.801691 C193.842976,73.0046756 194.811552,73.2076221 195.785763,73.3992855 C199.361698,74.1096449 202.954504,74.7373153 206.564182,75.2822968 C211.514164,76.032118 216.484778,76.6315951 221.476026,77.080728 C223.841167,77.3006037 226.20821,77.4810154 228.577154,77.6219632 C234.653379,77.9883734 240.735233,78.1311849 246.822715,78.0503975 C248.078531,78.0335022 249.334325,78.0053215 250.590095,77.9658554 C258.046035,77.7459755 265.479427,77.185954 272.890269,76.2857907 C281.150691,75.2852825 289.354911,73.8646243 297.471106,72.0293265 C297.80502,71.9313706 298.063363,71.6655934 298.152079,71.3287592 C298.240796,70.991925 298.146941,70.6331754 297.904686,70.3831242 Z" id="Path" fill="#E6E6E6"></path>
                        <path d="M395.944997,363.433735 L187.750437,363.433735 C179.875564,363.445032 173.494035,371.204726 173.48474,380.780267 C173.48474,382.991796 173.832317,385.182947 174.513904,387.233309 C176.680694,393.813228 181.921455,398.128573 187.750437,398.13253 L395.944997,398.13253 C401.012672,398.130468 405.699111,394.859752 408.256744,389.54003 C408.614682,388.801183 408.925439,388.03001 409.186275,387.233309 C409.867863,385.182947 410.21544,382.991796 410.21544,380.780267 C410.203908,371.203602 403.820798,363.444567 395.944997,363.433735 Z" id="Path" fill="#CCCCCC"></path>
                        <g id="Group-33" transform="translate(182.156194, 132.686747)">
                            <ellipse id="b6ad44ff-295b-418b-9346-03b76e49c34f" fill="#F7CDB4" cx="106.658887" cy="61.5903614" rx="39.021544" ry="39.0361446"></ellipse>
                            <path d="M64.1751783,24.4128141 C64.4692207,19.9352158 67.4226736,15.3532973 76.8062111,12.9590221 C76.8062111,12.9590221 92.9100148,-7.68684856 114.793231,3.14012322 C114.793231,3.14012322 125.402117,1.31021045 133.268855,12.3458351 C133.268855,12.3458351 141.068291,7.73395798 144.358931,15.9085182 C144.358931,15.9085182 153.506375,32.582718 150.138679,49.5904102 C146.770982,66.5981024 145.047237,68.7206081 145.047237,68.7206081 C145.047237,68.7206081 149.339845,33.5405282 124.615605,35.9799473 C99.8913649,38.4193665 79.9859633,29.7021415 74.3869125,48.7882535 C69.7376752,64.6365843 70.3233335,72.8674699 70.3233335,72.8674699 C70.3233335,72.8674699 54.7760841,57.0573968 60.0621994,44.6081325 C62.7658601,38.2408053 63.7217142,31.318118 64.1751783,24.4128141 Z" id="e8f77054-5a04-4fda-83df-6cd2e0c3cac3" fill="#2F2E41"></path>
                            <path d="M0,266.313253 L216.786355,266.313253 C215.337514,249.754101 214.39051,186.455527 214.39051,182.289385 C214.39051,163.914648 199.37582,143.862106 199.37582,143.862106 L194.001272,140.88741 L149.119039,126.865211 L137.503915,111.756887 C135.038199,108.540377 131.208768,106.668042 127.159531,106.698795 L90.4686056,106.974782 C87.2398333,106.999682 84.1367208,108.231074 81.7673589,110.427654 L59.0470433,131.533914 L25.7232728,147.468942 L25.6665988,147.412254 L25.3185505,147.671578 L20.373019,151.237935 L17.1920163,153.539897 C17.1920163,153.539897 8.84693064,163.566171 2.1773255,193.63687 C1.17366737,198.159607 0.469426192,256.708423 0,266.313253 Z" id="Path" fill="#FFDE63"></path>
                            <ellipse id="Oval" fill="#F7CDB4" cx="61.1337522" cy="243.325301" rx="14.3078995" ry="14.313253"></ellipse>
                            <ellipse id="Oval" fill="#F7CDB4" cx="162.589767" cy="245.927711" rx="14.3078995" ry="14.313253"></ellipse>
                        </g>
                        <path d="M454.439856,385.120482 C453.917821,385.586815 453.39014,386.047623 452.862458,386.508431 C450.865189,388.246132 448.839559,389.954235 446.785566,391.632742 C443.681883,394.164345 440.513883,396.620098 437.281564,399 L145.55711,399 C139.616389,394.636283 133.895079,390.009777 128.393178,385.120482 L454.439856,385.120482 Z" id="Path" fill="#CCCCCC"></path>
                        <polygon id="Path" fill="#2F2E41" points="346.913824 390.325301 239.387792 390.325301 241.663141 379.915663 344.637837 379.915663"></polygon>
                        <path d="M415.474726,344.349416 C414.174979,344.345739 412.94024,344.903167 412.102479,345.871866 C411.706017,345.797235 411.303181,345.759472 410.899396,345.759087 C408.487222,345.756781 406.257269,347.009912 405.050499,349.045899 C403.843729,351.081886 403.843729,353.590991 405.050499,355.626978 C406.257269,357.662965 408.487222,358.916096 410.899396,358.91379 C411.918125,358.913615 412.923283,358.686016 413.837787,358.248448 L414.312103,363.932112 L416.197783,386.396102 C416.287348,386.676618 416.407579,386.94694 416.556405,387.20241 C417.332789,388.592042 418.825972,389.457161 420.449229,389.457831 L438.94736,389.457831 C440.571738,389.455844 442.066002,388.591383 442.845967,387.20241 C442.990535,386.945626 443.108721,386.675544 443.1988,386.396102 L448.173302,349.959809 C448.588184,348.64473 448.338154,347.215753 447.499535,346.109089 C446.660916,345.002425 445.333253,344.349416 443.921831,344.349416 L415.474726,344.349416 Z M410.899376,357.03618 C408.238878,357.033171 406.083753,354.929907 406.083753,352.336438 C406.083753,349.74297 408.238878,347.639706 410.899376,347.636697 C410.986116,347.636697 411.067107,347.659273 411.153886,347.664916 C410.963519,348.421906 410.987517,349.215071 411.22332,349.959809 L413.259366,356.41031 C412.542377,356.816504 411.728647,357.032305 410.899376,357.03618 L410.899376,357.03618 Z" id="Shape" fill="#3F3D56"></path>
                        <path d="M380.234326,224.638554 L204.332999,224.638554 C201.186491,224.64356 198.636983,227.193433 198.631957,230.340414 L198.631957,349.057177 C198.634983,352.204987 201.185661,354.756031 204.332999,354.759036 L380.234326,354.759036 C383.381664,354.756031 385.932342,352.204987 385.935368,349.057177 L385.935368,230.34042 C385.930346,227.193437 383.380837,224.64356 380.234326,224.638554 L380.234326,224.638554 Z" id="Path" stroke="#F1F1F1" fill="#3F3D56"></path>
                        <path d="M311.786013,319.192771 L271.041397,319.192771 C269.841141,319.194617 268.869462,320.185227 268.870737,321.40572 L268.870737,386.855422 L313.962296,386.855422 L313.962296,321.40572 C313.962296,320.818711 313.733407,320.255657 313.325209,319.840581 C312.91701,319.425506 312.363289,319.192771 311.786013,319.192771 L311.786013,319.192771 Z M291.550783,356.380487 C288.898739,356.367922 286.751886,354.184887 286.739512,351.488129 L286.739512,343.939074 C286.742544,341.239272 288.895729,339.052284 291.550768,339.052284 C294.205807,339.052284 296.358991,341.239272 296.362023,343.939074 L296.362023,351.488129 C296.34969,354.184892 294.202833,356.367946 291.550783,356.380487 L291.550783,356.380487 Z" id="Shape" fill="#2F2E41"></path>
                        <path d="M268.870736,385.120482 L268.870736,391.651034 C268.872132,392.355537 269.421898,392.926284 270.100483,392.927711 L313.599734,392.927711 C314.277479,392.924201 314.826063,392.354664 314.829443,391.651034 L314.829443,385.120482 L268.870736,385.120482 Z" id="Path" fill="#3F3D56"></path>
                        <ellipse id="Oval" fill="#2F2E41" cx="377.263914" cy="345.216867" rx="2.60143627" ry="2.60240964"></ellipse>
                        <path d="M227.24777,340.012048 C227.017784,340.012048 226.797213,340.127172 226.634586,340.332154 C226.471959,340.537135 226.38061,340.815158 226.38061,341.10505 L226.38061,346.729045 C226.381831,347.331614 226.769708,347.819277 227.247756,347.819277 C227.725804,347.819277 228.11368,347.331614 228.114901,346.729045 L228.114901,341.10505 C228.114924,340.815159 228.023573,340.537133 227.860949,340.33215 C227.698326,340.127166 227.477754,340.012048 227.24777,340.012048 Z" id="Path" fill="#2F2E41"></path>
                        <path d="M232.450611,340.012048 C232.220631,340.012048 232.000066,340.127142 231.837446,340.33205 C231.674825,340.536957 231.583483,340.814876 231.583483,341.104659 L231.583483,346.726645 C231.583483,347.330089 231.971717,347.819277 232.450628,347.819277 C232.92954,347.819277 233.317774,347.330089 233.317774,346.726645 L233.317774,341.104659 C233.317774,340.814869 233.226425,340.536945 233.063797,340.332037 C232.90117,340.127128 232.680597,340.012048 232.450611,340.012048 L232.450611,340.012048 Z" id="Path" fill="#2F2E41"></path>
                        <path d="M236.78637,340.012048 C236.556384,340.012048 236.335812,340.127172 236.173185,340.332154 C236.010558,340.537135 235.91921,340.815158 235.91921,341.10505 L235.91921,346.729045 C235.920431,347.331614 236.308307,347.819277 236.786355,347.819277 C237.264404,347.819277 237.65228,347.331614 237.653501,346.729045 L237.653501,341.10505 C237.653523,340.815159 237.562172,340.537133 237.399549,340.33215 C237.236925,340.127166 237.016354,340.012048 236.78637,340.012048 Z" id="Path" fill="#2F2E41"></path>
                        <path d="M241.989214,340.012048 C241.759233,340.012048 241.538667,340.127183 241.376046,340.332164 C241.213425,340.537145 241.122083,340.815163 241.122083,341.10505 L241.122083,346.729045 C241.123303,347.331614 241.51118,347.819277 241.989228,347.819277 C242.467276,347.819277 242.855153,347.331614 242.856373,346.729045 L242.856373,341.10505 C242.856373,340.815158 242.765025,340.537135 242.602398,340.332154 C242.439771,340.127172 242.2192,340.012048 241.989214,340.012048 Z" id="Path" fill="#2F2E41"></path>
                        <path d="M160.477558,95.7729931 L160.477558,96.9469859 C160.100575,96.8701598 159.71722,96.8314191 159.332938,96.8313144 L153.463883,96.8313144 L153.463883,109.820248 C153.46164,113.824479 150.312784,117.069973 146.427781,117.072289 L137.753255,117.072289 L137.753255,119.073266 C137.753243,119.875382 137.90772,120.66952 138.207729,121.409639 L137.006979,121.409639 C136.756056,120.657925 136.628993,119.868222 136.631056,119.073266 L136.631056,117.072289 L131.861759,117.072289 L131.861759,115.915664 L136.631056,115.915664 L136.631056,102.926744 C136.633299,98.92251 139.782159,95.6770146 143.667165,95.6747024 L152.341691,95.6747024 L152.341691,93.6506024 L153.463877,93.6506024 L153.463877,95.6747024 L159.332932,95.6747024 C159.716442,95.675106 160.099271,95.7079801 160.477558,95.7729931 Z" id="Path" fill="#FFDE63"></path>
                        <path d="M147.22661,86.7108434 L131.238381,86.7108434 C127.27341,86.7131372 124.05974,89.9280121 124.057451,93.8944654 L124.057451,109.888667 C124.05974,113.85512 127.27341,117.069995 131.238381,117.072289 L147.22661,117.072289 C151.191581,117.069995 154.405251,113.85512 154.40754,109.888667 L154.40754,93.8715931 C154.393301,89.9138106 151.182938,86.7124706 147.22661,86.7108434 Z M153.262256,109.888667 C153.257776,113.221452 150.558149,115.922091 147.22661,115.926576 L131.238381,115.926576 C127.906842,115.922091 125.207215,113.221452 125.202735,109.888667 L125.202735,93.8944654 C125.207215,90.561682 127.906843,87.8610444 131.238381,87.8565626 L147.22661,87.8565626 C150.54949,87.860395 153.245796,90.5474765 153.262256,93.8715609 L153.262256,109.888667 Z" id="Shape" fill="#3F3D56"></path>
                        <path d="M136.197536,115.435571 L136.197536,116.581284 L137.342825,116.581284 L137.342825,115.435571 L136.197536,115.435571 Z M136.197536,115.435571 L136.197536,116.581284 L137.342825,116.581284 L137.342825,115.435571 L136.197536,115.435571 Z M160.534831,95.4829184 C160.148761,95.4185148 159.758054,95.3859465 159.366653,95.3855422 L143.37846,95.3855422 C139.413494,95.3878325 136.199826,98.6027091 136.197511,102.569166 L136.197511,118.563371 C136.195431,119.350827 136.32511,120.13308 136.581197,120.877701 C137.572223,123.788435 140.304678,125.745856 143.37846,125.746988 L159.366653,125.746988 C163.331616,125.744698 166.545283,122.529825 166.547576,118.563371 L166.547576,102.569179 C166.546614,99.053488 164.002363,96.054986 160.534831,95.4829184 Z M165.402294,118.563371 C165.39781,121.896156 162.698185,124.596793 159.366653,124.601275 L143.37846,124.601275 C140.047037,124.596532 137.347567,121.896047 137.342825,118.563371 L137.342825,102.569179 C137.347302,99.2363919 140.046926,96.5357499 143.37846,96.531268 L159.366653,96.531268 C162.69952,96.5325378 165.401025,99.2350587 165.402294,102.569179 L165.402294,118.563371 Z M136.197536,115.435532 L136.197536,116.581245 L137.342825,116.581245 L137.342825,115.435532 L136.197536,115.435532 Z" id="Shape" fill="#3F3D56"></path>
                        <path d="M105.754504,269.807229 L38.1973288,269.807229 C37.2182659,269.807821 36.4238439,270.606597 36.4201077,271.594189 L36.4201077,275.633565 C38.6489538,284.244678 41.3473738,292.725107 44.5030508,301.036145 L105.754517,301.036145 C106.224496,301.036618 106.675361,300.848502 107.007686,300.513279 C107.340012,300.178056 107.526032,299.72326 107.526032,299.249184 L107.526032,271.594189 C107.524982,270.607712 106.732455,269.808281 105.754504,269.807229 L105.754504,269.807229 Z" id="Path" fill="#FFDE63"></path>
                        <path d="M99.363184,309.711121 L47.6929982,309.711121 C48.3079836,311.166387 48.9344784,312.610055 49.5839535,314.047915 L99.3631904,314.047915 C102.167971,314.088502 102.139239,309.670528 99.363184,309.711121 Z" id="Path" fill="#E4E4E4"></path>
                        <path d="M99.3569267,320.120686 L52.0287253,320.120686 C52.7204566,321.575963 53.4314254,323.021586 54.161632,324.457553 L99.3569267,324.457553 C102.170101,324.498141 102.141283,320.08592 99.3569267,320.120686 Z" id="Path" fill="#E4E4E4"></path>
                        <path d="M99.3644351,330.530398 L57.2315978,330.530398 C58.0012848,331.98567 58.7939705,333.429332 59.5981523,334.867192 L99.3644351,334.867192 C102.167546,334.907779 102.138832,330.489811 99.3644351,330.530398 Z" id="Path" fill="#E4E4E4"></path>
                        <path d="M467.425877,61.5542169 L467.082275,61.5542169 C468.151831,61.5551161 469.206539,61.7873078 470.16322,62.2324806 L468.599487,62.2324806 C465.091184,62.2361729 462.248132,64.8826461 462.244165,68.1483722 L462.244165,83.8204889 C462.248132,87.086215 465.091184,89.7326882 468.599487,89.7363805 L469.596361,89.7363805 C468.795356,90.0288917 467.942712,90.1795889 467.082275,90.1807229 L467.425877,90.1807229 C471.267024,90.1766108 474.379787,87.2790728 474.384201,83.7035156 L474.384201,68.0314115 C474.37978,64.4558593 471.267019,61.5583289 467.425877,61.5542169 Z" id="Path" fill="#3F3D56"></path>
                        <path d="M467.425877,61.5542169 L467.082275,61.5542169 C468.151831,61.5551161 469.206539,61.7873078 470.16322,62.2324806 L468.599487,62.2324806 C465.091184,62.2361729 462.248132,64.8826461 462.244165,68.1483722 L462.244165,83.8204889 C462.248132,87.086215 465.091184,89.7326882 468.599487,89.7363805 L469.596361,89.7363805 C468.795356,90.0288917 467.942712,90.1795889 467.082275,90.1807229 L467.425877,90.1807229 C471.267024,90.1766108 474.379787,87.2790728 474.384201,83.7035156 L474.384201,68.0314115 C474.37978,64.4558593 471.267019,61.5583289 467.425877,61.5542169 Z" id="Path" fill="#000000" opacity="0.21"></path>
                        <path d="M424.935751,61.5542169 L424.592149,61.5542169 C425.661705,61.5551161 426.716413,61.7873078 427.673094,62.2324806 L426.109361,62.2324806 C422.60106,62.2361764 419.75801,64.8826476 419.754039,68.1483722 L419.754039,83.8204889 C419.75801,87.0862136 422.60106,89.7326848 426.109361,89.7363805 L427.106235,89.7363805 C426.30523,90.0288917 425.452587,90.1795889 424.592149,90.1807229 L424.935751,90.1807229 C428.776899,90.1766108 431.889662,87.2790728 431.894075,83.7035156 L431.894075,68.0314115 C431.889654,64.4558593 428.776894,61.5583289 424.935751,61.5542169 Z" id="Path" fill="#FFDE63"></path>
                        <path d="M424.935751,61.5542169 L424.592149,61.5542169 C425.661705,61.5551161 426.716413,61.7873078 427.673094,62.2324806 L426.109361,62.2324806 C422.60106,62.2361764 419.75801,64.8826476 419.754039,68.1483722 L419.754039,83.8204889 C419.75801,87.0862136 422.60106,89.7326848 426.109361,89.7363805 L427.106235,89.7363805 C426.30523,90.0288917 425.452587,90.1795889 424.592149,90.1807229 L424.935751,90.1807229 C428.776899,90.1766108 431.889662,87.2790728 431.894075,83.7035156 L431.894075,68.0314115 C431.889654,64.4558593 428.776894,61.5583289 424.935751,61.5542169 Z" id="Path" fill="#000000" opacity="0.21"></path>
                        <path d="M425.278483,89.7363868 C422.108983,89.7326945 419.54049,87.0862213 419.536907,83.8204952 L419.536907,68.1483722 C419.540494,64.8826476 422.108985,62.2361764 425.278483,62.2324806 L426.691203,62.2324806 C425.826911,61.787312 424.874062,61.5551206 423.907797,61.5542169 L408.69747,61.5542169 C405.227277,61.5583324 402.415125,64.4558618 402.411131,68.0314115 L402.411131,83.7035282 C402.415105,87.2790866 405.227269,90.1766281 408.69747,90.1807229 L423.907803,90.1807229 C424.685145,90.1795894 425.455445,90.0288922 426.179093,89.7363805 L425.278483,89.7363868 Z" id="Path" fill="#FFDE63"></path>
                        <path d="M467.768607,89.7363868 C464.599104,89.7326945 462.030609,87.0862213 462.027025,83.8204952 L462.027025,68.1483722 C462.030612,64.8826476 464.599106,62.2361764 467.768607,62.2324806 L469.181329,62.2324806 C468.317034,61.7873113 467.364182,61.5551198 466.397914,61.5542169 L451.187602,61.5542169 C447.717405,61.5583324 444.905251,64.4558618 444.901257,68.0314115 L444.901257,83.7035282 C444.905231,87.2790866 447.717397,90.1766281 451.187602,90.1807229 L466.397938,90.1807229 C467.175282,90.1795901 467.945586,90.0288928 468.669236,89.7363805 L467.768607,89.7363868 Z" id="Path" fill="#3F3D56"></path>
                        <path d="M487.063594,65.8915663 C492.880998,73.6645824 498.203084,81.776134 503,90.1807229 L493.075918,90.1807229 C489.45975,90.1755107 486.529605,87.3296871 486.524237,83.8175835 L486.524237,68.4224782 C486.523652,67.551868 486.707232,66.6904232 487.063594,65.8915663 L487.063594,65.8915663 Z" id="Path" fill="#D54755"></path>
                        <path d="M467.068589,99.5326235 L461.574875,91.2040272 L457.558541,85.1153456 C457.08024,84.389482 456.232062,84.0067727 455.378898,84.1318613 C454.525734,84.2569499 453.819739,84.8675279 453.564634,85.7009215 L451.873827,91.2040272 L448.46976,102.261433 C448.194357,103.163478 448.500412,104.143816 449.23792,104.721961 C449.975427,105.300107 450.989837,105.354905 451.783964,104.859498 L452.991697,104.103374 C453.485901,103.795006 454.102542,103.767268 454.621828,104.030048 C455.141114,104.292827 455.489166,104.808739 455.541926,105.393893 L456.648516,117.616717 C456.756077,118.779917 457.718619,119.670424 458.872969,119.674699 C458.940398,119.674699 459.007776,119.66901 459.080801,119.663321 L460.777236,119.509808 C461.368243,119.455535 461.913621,119.165483 462.293015,118.703661 C462.672409,118.241838 462.854632,117.646208 462.799472,117.048214 L461.65918,104.427429 C461.604155,103.824001 461.871648,103.236752 462.360759,102.887194 C462.84987,102.537635 463.486172,102.47896 464.029651,102.7333 L464.276813,102.846971 C465.186266,103.270765 466.263235,103.030828 466.912782,102.259706 C467.562329,101.488584 467.625999,100.374389 467.06862,99.5326235 L467.068589,99.5326235 Z" id="Path" fill="#CCCCCC"></path>
                    </g>
                </g>
                <g id="Group-19" transform="translate(470.000000, 173.000000)">
                    <circle id="Oval" fill="#3F3D56" opacity="0.74" cx="19" cy="33" r="19"></circle>
                    <circle id="Oval" fill="#FFDE63" opacity="0.74" cx="38" cy="33" r="19"></circle>
                    <circle id="Oval" fill="#D54755" opacity="0.74" cx="28" cy="19" r="19"></circle>
                    <polygon id="Rectangle" fill="#3F3D56" transform="translate(52.926424, 21.194220) rotate(-17.440739) translate(-52.926424, -21.194220) " points="27.869019 20.6519069 77.9838285 20.6519069 77.9838285 21.7365334 27.869019 21.7365334"></polygon>
                    <circle id="Oval" fill="#3F3D56" cx="77" cy="13" r="2"></circle>
                </g>
            </g>
        </g>
    </g>
</svg>