<?xml version="1.0" encoding="UTF-8"?>
<svg width="72px" height="34px" viewBox="0 0 72 34" version="1.1" xmlns="http://www.w3.org/2000/svg" xmlns:xlink="http://www.w3.org/1999/xlink">
    <title>hotjar-seeklogo.com copy 3</title>
    <g id="Page-1" stroke="none" stroke-width="1" fill="none" fill-rule="evenodd">
        <g id="Home" transform="translate(-491.000000, -1228.000000)" fill-rule="nonzero">
            <g id="hotjar-seeklogo.com-copy-3" transform="translate(491.000000, 1228.000000)">
                <path d="M4.44426483,14.1363233 C5.73286277,13.5328708 7.15926798,13.2464917 8.59366203,13.3031582 C11.3681819,13.3945558 12.8922905,14.7358915 12.9526861,17.3675325 C13.0201917,20.1245406 12.9988615,22.8577854 12.9881565,25.6113661 C12.9881565,26.7325859 12.6790687,26.9898701 11.5174132,26.9898701 L9.90806388,26.9898701 C8.88133972,26.9898701 8.56162683,26.6918378 8.54029666,25.7062672 L8.54029666,18.3260647 C8.54029666,17.1846612 7.97540664,16.7138113 6.76406067,16.7612619 C6.55315561,16.7646893 6.34296955,16.7838828 6.13518014,16.8188424 C4.54724082,17.1270807 4.45481008,17.2353869 4.45481008,18.7798537 L4.45481008,25.3573569 C4.45481008,26.7629756 4.20260279,27 2.74959478,27 L1.14040518,27 C0.383703403,27 0.0497703976,26.661372 0,25.9162532 L0,8.53761201 C0,7.26749026 0.284242496,7 1.59512926,7 L3.01610207,7 C4.11744188,7 4.45488997,7.29460488 4.47630003,8.35474068 C4.50825534,9.94323068 4.47630003,11.5316445 4.47630003,13.1167833 C4.44426483,13.4081892 4.44426483,13.7231301 4.44426483,14.1363233 Z" id="Path" fill="#000000"></path>
                <path d="M28,20.2271719 C27.9059393,20.9527492 27.8501764,21.8832923 27.6516385,22.7904906 C27.3375806,24.8341044 25.6929667,26.4492014 23.580242,26.7884941 C22.1364372,27.0875946 20.6413336,27.0693116 19.2059088,26.7346274 C17.3870358,26.3965434 15.937827,25.0692899 15.4932902,23.3346736 C14.8355699,21.1466848 14.8355699,18.823689 15.4932902,16.6356246 C16.1898565,14.3376358 18.0112357,13.1046681 20.6791615,13.0171817 C21.6416981,12.9676968 22.6068975,13.02519 23.5558849,13.188528 C26.0739087,13.6757467 27.5018149,15.3219701 27.8258193,18.0095677 C27.9059393,18.6917796 27.9302181,19.3501934 28,20.2271719 Z M23.6046774,20.2808876 C23.5558849,19.5315877 23.5280818,19.0209487 23.4792109,18.5169581 C23.4486666,18.2527615 23.3925905,17.9919647 23.3120788,17.737514 C23.1522304,16.8897731 22.3533016,16.2962563 21.4628182,16.3634954 C20.5942641,16.3001093 19.8167162,16.8805561 19.6621151,17.7072942 C19.267154,19.2178307 19.267154,20.7994593 19.6621151,22.3099958 C19.8246264,23.1510883 20.633815,23.7278331 21.5149784,23.6302988 C22.3497772,23.6859032 23.0966242,23.1325787 23.2563159,22.3403667 C23.4108387,21.6592125 23.5270636,20.9705789 23.6046774,20.2774879 L23.6046774,20.2774879 L23.6046774,20.2808876 L23.6046774,20.2808876 Z" id="Shape" fill="#000000"></path>
                <path d="M56.7287524,18.1786781 C56.9205406,16.7724145 56.5962413,16.3384609 55.1911534,16.4023132 C54.0459911,16.4955951 52.9081992,16.658479 51.7845209,16.890057 C50.8325582,17.0549836 50.1352677,16.8228003 50.002835,16.1096821 C49.7865832,14.932273 49.8703239,13.9228923 50.8500434,13.6403232 C53.1135522,12.9218335 55.535839,12.8055527 57.8619965,13.3038125 C59.9749602,13.7915563 61,15.1406251 61,17.3409571 L61,25.132526 C61,25.721344 61,26.3269573 60.2748743,26.5557362 C59.4674192,26.8398184 58.5620314,26.5994644 58.0188928,25.9568561 L57.795741,25.6440252 C56.5592323,26.5984809 55.0006981,27.077827 53.419739,26.9896897 C49.9853498,26.8686427 48.0117188,23.7095428 49.5040758,20.7053074 C50.2014448,19.2755152 51.5962611,18.8246151 53.0363978,18.6026452 C54.2775326,18.4241765 55.5083959,18.3131915 56.7287524,18.1786781 Z M56.7950863,20.4730484 C55.9616779,20.5941711 55.2294954,20.6613522 54.518248,20.8095591 C53.7764212,20.9024627 53.2163463,21.5042933 53.2001156,22.2258847 C53.0433762,22.9508807 53.4409094,23.681475 54.1485499,23.9685077 C54.8459189,24.2309528 56.3277691,23.9685077 56.6694752,23.5111013 C56.7351035,23.4224344 56.7714852,23.3169722 56.7739943,23.2082569 C56.7950863,22.3234032 56.7950863,21.4418784 56.7950863,20.4629864 L56.7950863,20.4629864 L56.7950863,20.4730484 L56.7950863,20.4730484 Z" id="Shape" fill="#000000"></path>
                <path d="M31.375526,12.7372289 L31.375526,10.8968086 C31.313433,10.3326746 31.6627345,9.80816685 32.1913302,9.67215667 C32.8873236,9.42879531 33.5948298,9.22201821 34.3108556,9.05270596 C34.8277849,8.87362722 35.3861607,9.16566085 35.5579332,9.70481832 C35.6038313,9.84891386 35.6185678,10.0019753 35.6010682,10.1527153 C35.6249383,10.9466017 35.6010682,11.7333633 35.6010682,12.6161886 L37.6250364,12.6161886 C38.6114619,12.6411652 38.9493272,12.9720246 38.9903899,14.0400927 C39.0449611,16.2044878 38.9323649,16.3256881 36.8810727,16.3256881 L35.6897943,16.3256881 C35.6580187,16.5187762 35.6363744,16.7137855 35.6249383,16.9093551 L35.6249383,21.4768635 C35.6249383,22.9007676 36.0345673,23.3350555 37.3622352,23.4347216 C38.5261129,23.5237406 38.8436388,23.7907977 38.8436388,24.7804139 C38.884548,26.3573794 38.5772302,26.8914135 37.3622352,26.9661831 C36.3984518,27.0418332 35.4295259,26.9904392 34.4780997,26.8132017 C32.5019483,26.3966054 31.4370816,25.0579579 31.3721488,22.8794735 C31.3141238,20.9784531 31.3482788,19.0738302 31.3415245,17.1835369 L31.3415245,16.3291304 L30.1469458,16.3291304 C29.5845789,16.3762817 29.0915964,15.9401525 29.044547,15.3537637 C29.044547,15.3204616 29.044547,15.2885205 29.044547,15.25762 C28.8806032,13.8016146 29.1298192,13.4135973 30.4575639,13.0218976 L31.375526,12.7372289 Z" id="Path" fill="#000000"></path>
                <path d="M45.9804441,21.7821207 C45.9804441,24.1873921 46.0244449,26.5929756 45.9804441,28.9984031 C45.9690252,31.7724192 43.7665495,34.0118178 41.0613382,34 C40.8040325,33.9987822 40.5471075,33.9770041 40.2931513,33.9344626 C39.3487329,33.8130048 39.0134743,33.4312243 39,32.4280262 L39,31.5358262 C39.0406513,30.6958468 39.2946074,30.4042231 40.1070234,30.2514641 C41.3595235,30.012139 41.7692333,29.5294299 41.7725067,28.1862903 L41.7725067,14.5064364 C41.7725067,13.3469667 42.060415,13.0380141 43.1944631,13 L44.7346431,13 C45.6453377,13.0415267 45.9871432,13.3817804 45.9938423,14.3222982 L45.9938423,21.7367692 L45.9804441,21.7821207 Z" id="Path" fill="#000000"></path>
                <path d="M66.212691,14.3107984 C67.388796,13.4979074 68.7902243,13.0413756 70.2372661,13 C71.6732477,13 72.0036034,13.2905626 72,14.6601579 L72,15.2758148 C72,16.1612686 71.6194802,16.4759411 70.7219008,16.5658475 C69.8770396,16.6651646 69.0382332,16.8071794 68.2088725,16.9912698 C67.652467,17.1055194 67.4405453,17.4305358 67.4513634,18.0288491 C67.4943128,20.5293521 67.4513634,23.0090896 67.4513634,25.4959045 C67.4513634,26.7167187 67.1747752,26.9725942 65.8931534,26.9968596 L64.0443079,26.9968596 C63.5127679,27.0387019 63.0466208,26.6575329 63.0031869,26.1453151 C62.9980201,26.083485 62.9990696,26.0211105 63.0068199,25.9594359 L63.0068199,14.4560797 C62.9656465,13.9438619 63.3634135,13.4963519 63.895115,13.4566873 C63.8958416,13.4565318 63.8964875,13.4565318 63.8971333,13.4565318 L63.9401635,13.4565318 C64.8341099,13.3113282 65.7746387,13.1764686 66.212691,14.3107984 Z" id="Path" fill="#000000"></path>
                <path d="M46.181511,10.6914628 C46.9239554,7.77726746 46.6578839,6.30939559 45.3536756,6.02579642 C45.5540787,7.01637588 45.7773808,8.03205476 44.8249305,8.71748668 C44.3255109,9.0763841 43.9314267,8.93999178 43.0477472,8.19709754 C42.6403668,9.11229805 42.7784255,10.0238668 42.9656063,11 C41.6977409,10.7595783 40.6990494,10.1852778 40.2360466,8.84669621 C39.7582702,7.63054484 40.0199097,6.21827906 40.8929522,5.30081879 C41.197952,4.96250128 41.5276236,4.65162365 41.8783475,4.3712527 C43.3040682,3.20126488 43.5798902,2.06719101 42.8276953,0.308617881 C42.7940855,0.207897401 42.7666806,0.104836461 42.7457021,0 C44.3308294,0.263180678 45.8299007,0.958055144 47.104562,2.02062393 C49.8836869,4.50409397 49.5486968,8.9650912 46.4805275,10.60535 C46.3767434,10.6140662 46.2753969,10.6431202 46.181511,10.6914628 Z" id="Path" fill="#EE4854"></path>
            </g>
        </g>
    </g>
</svg>