<?xml version="1.0" encoding="UTF-8"?>
<svg width="152px" height="44px" viewBox="0 0 152 44" version="1.1" xmlns="http://www.w3.org/2000/svg" xmlns:xlink="http://www.w3.org/1999/xlink">
    <title>Group 2</title>
    <g id="Page-1" stroke="none" stroke-width="1" fill="none" fill-rule="evenodd">
        <g id="Artboard" transform="translate(-831.000000, -191.000000)" fill-rule="nonzero">
            <g id="Group-2" transform="translate(831.959712, 191.769398)">
                <circle id="Oval-Copy" fill="#EF4958" cx="21.5" cy="21.5" r="21.5"></circle>
                <g id="remote" transform="translate(52.902288, 11.694765)">
                    <path d="M2.95400048,18.5358367 C3.52800058,18.5358367 3.85000063,18.2138366 3.85000063,17.6398365 L3.85000063,10.8498354 C3.85000063,8.59583502 5.39000088,7.09783478 7.23800119,7.09783478 C7.42000122,7.09783478 7.61600125,7.11183478 7.82600128,7.13983479 C8.44200138,7.2378348 8.80600144,7.01383477 8.86200145,6.41183467 L8.98800147,4.7878344 C9.03000148,4.26983432 8.82000145,3.84983425 8.30200136,3.75183423 C8.12000133,3.70983422 7.9240013,3.69583422 7.72800127,3.69583422 C6.06200099,3.69583422 4.77400078,4.57783437 3.85000063,5.80983457 L3.85000063,4.92783442 C3.85000063,4.35383433 3.52800058,4.03183428 2.95400048,4.03183428 L0.896000147,4.03183428 C0.322000053,4.03183428 0,4.35383433 0,4.92783442 L0,17.6398365 C0,18.2138366 0.322000053,18.5358367 0.896000147,18.5358367 L2.95400048,18.5358367 Z M18.3960012,18.8718367 C21.0420016,18.8718367 22.9740019,17.8778365 24.4860022,16.4358363 C24.8920023,16.0298362 24.8640023,15.5678362 24.4580022,15.1618361 L23.7720021,14.475836 C23.380002,14.0838359 22.9460019,14.0698359 22.4980019,14.419836 C21.3360017,15.3298361 20.0480015,15.8058362 18.3820012,15.8058362 C16.0580008,15.8058362 14.3780005,14.447836 14.0420005,12.4318357 L24.6400022,12.4318357 C25.1860023,12.4318357 25.5500024,12.1658356 25.6060024,11.6198355 C25.6200024,11.4238355 25.6340024,11.2138355 25.6340024,11.0318354 C25.6340024,6.98583476 22.4700019,3.69583422 18.0320011,3.69583422 C13.5380004,3.69583422 10.1499998,7.04183477 10.1499998,11.2838355 C10.1499998,15.5258362 13.4400004,18.8718367 18.3960012,18.8718367 Z M21.6720017,9.6878352 L14.1400005,9.6878352 C14.6580006,7.92383491 16.1840008,6.76183472 18.0040011,6.76183472 C19.8800014,6.76183472 21.2520017,7.96583492 21.6720017,9.6878352 Z M31.3600005,18.5358367 C31.9340006,18.5358367 32.2560006,18.2138366 32.2560006,17.6398365 L32.2560006,10.6398354 C32.2560006,8.455835 33.7680009,7.09783478 35.406,7.09783478 C36.8900014,7.09783478 37.9400016,8.35783499 37.9400016,9.96783525 L37.9400016,17.6398365 C37.9400016,18.2138366 38.2620016,18.5358367 38.8360017,18.5358367 L40.894002,18.5358367 C41.4680021,18.5358367 41.7900022,18.2138366 41.7900022,17.6398365 L41.7900022,10.6398354 C41.7900022,8.455835 43.3020024,7.09783478 44.9400027,7.09783478 C46.424003,7.09783478 47.4740031,8.35783499 47.4740031,9.96783525 L47.4740031,17.6398365 C47.4740031,18.2138366 47.7960032,18.5358367 48.3700033,18.5358367 L50.4280036,18.5358367 C51.0020037,18.5358367 51.3240038,18.2138366 51.3240038,17.6398365 L51.3240038,9.56183518 C51.3240038,6.04783461 48.9020034,3.69583422 45.7800028,3.69583422 C43.8060025,3.69583422 42.1120022,4.82983441 41.1180021,6.6218347 C40.1800019,4.8018344 38.3740016,3.69583422 36.2460013,3.69583422 C34.664001,3.69583422 33.2640008,4.42383434 32.2560006,5.62783454 L32.2560006,4.92783442 C32.2560006,4.35383433 31.9340006,4.03183428 31.3600005,4.03183428 L29.3020001,4.03183428 C28.7280001,4.03183428 28.406,4.35383433 28.406,4.92783442 L28.406,17.6398365 C28.406,18.2138366 28.7280001,18.5358367 29.3020001,18.5358367 L31.3600005,18.5358367 Z" id="rem" fill="#3F3D56"></path>
                    <path d="M61.8660012,18.8718367 C66.4860019,18.8718367 69.9160025,15.5258362 69.9160025,11.2838355 C69.9160025,7.04183477 66.4860019,3.69583422 61.8660012,3.69583422 C57.2600004,3.69583422 53.8159998,7.04183477 53.8159998,11.2838355 C53.8159998,15.5258362 57.2600004,18.8718367 61.8660012,18.8718367 Z M61.8660012,15.4698362 C59.5000008,15.4698362 57.6800005,13.6498359 57.6800005,11.2838355 C57.6800005,8.93183508 59.5000008,7.09783478 61.8660012,7.09783478 C64.2460016,7.09783478 66.0660019,8.93183508 66.0660019,11.2838355 C66.0660019,13.6498359 64.2460016,15.4698362 61.8660012,15.4698362 Z" id="o" fill="#EF4958"></path>
                    <path d="M78.134001,18.8718367 C78.8200011,18.8718367 79.4920012,18.7598367 80.0380013,18.5638367 C80.5140014,18.3958366 80.6960014,18.0178366 80.6960014,17.5278365 L80.6960014,16.3798363 C80.6960014,15.7918362 80.3740013,15.4978362 79.7720012,15.5118362 C79.6180012,15.5258362 79.4640012,15.5258362 79.3240012,15.5258362 C77.7140009,15.5258362 77.1120008,14.8958361 77.1120008,13.5098358 L77.1120008,7.37783483 L79.6320012,7.37783483 C80.2060013,7.37783483 80.5280014,7.05583477 80.5280014,6.48183468 L80.5280014,4.92783442 C80.5280014,4.35383433 80.2060013,4.03183428 79.6320012,4.03183428 L77.1120008,4.03183428 L77.1120008,0.825833751 C77.1120008,0.20983365 76.7340007,-0.0981664002 76.1320006,0.0278336205 L74.0600003,0.433833687 C73.5280002,0.545833705 73.2620002,0.853833756 73.2620002,1.39983385 L73.2620002,4.03183428 L71.6239999,4.03183428 C71.0499998,4.03183428 70.7279997,4.35383433 70.7279997,4.92783442 L70.7279997,6.48183468 C70.7279997,7.05583477 71.0499998,7.37783483 71.6239999,7.37783483 L73.2620002,7.37783483 L73.2620002,13.7478359 C73.2620002,17.1498364 74.9980004,18.8718367 78.134001,18.8718367 Z M90.5800012,18.8718367 C93.2260016,18.8718367 95.1580019,17.8778365 96.6700022,16.4358363 C97.0760023,16.0298362 97.0480023,15.5678362 96.6420022,15.1618361 L95.9560021,14.475836 C95.564002,14.0838359 95.1300019,14.0698359 94.6820019,14.419836 C93.5200017,15.3298361 92.2320015,15.8058362 90.5660012,15.8058362 C88.2420008,15.8058362 86.5620005,14.447836 86.2260005,12.4318357 L96.8240022,12.4318357 C97.3700023,12.4318357 97.7340024,12.1658356 97.7900024,11.6198355 C97.8040024,11.4238355 97.8180024,11.2138355 97.8180024,11.0318354 C97.8180024,6.98583476 94.6540019,3.69583422 90.2160011,3.69583422 C85.7220004,3.69583422 82.3339998,7.04183477 82.3339998,11.2838355 C82.3339998,15.5258362 85.6240004,18.8718367 90.5800012,18.8718367 Z M93.8560017,9.6878352 L86.3240005,9.6878352 C86.8420006,7.92383491 88.3680008,6.76183472 90.1880011,6.76183472 C92.0640014,6.76183472 93.4360017,7.96583492 93.8560017,9.6878352 Z" id="te" fill="#3F3D56"></path>
                </g>
                <path d="M26.9202899,26.638602 C32.5302908,26.638602 36.6952915,22.5756013 36.6952915,17.4246005 C36.6952915,12.2735996 32.5302908,8.21059897 26.9202899,8.21059897 C21.3272889,8.21059897 17.1452883,12.2735996 17.1452883,17.4246005 C17.1452883,22.5756013 21.3272889,26.638602 26.9202899,26.638602 Z M26.9202899,22.5076013 C24.0472894,22.5076013 21.837289,20.2976009 21.837289,17.4246005 C21.837289,14.5686 24.0472894,12.3415996 26.9202899,12.3415996 C29.8102903,12.3415996 32.0202907,14.5686 32.0202907,17.4246005 C32.0202907,20.2976009 29.8102903,22.5076013 26.9202899,22.5076013 Z" id="o" fill="#FFFFFF"></path>
            </g>
        </g>
    </g>
</svg>